<?xml version="1.0" encoding="UTF-8"?>
<svg version="1.1" xmlns="http://www.w3.org/2000/svg" width="827" height="827">
<path d="M0 0 C0.99 0.99 0.99 0.99 2 2 C1.82150854 5.04922917 1.37090971 6.58315989 -0.671875 8.87890625 C-1.35765625 9.43449219 -2.0434375 9.99007813 -2.75 10.5625 C-3.83087891 11.45775391 -3.83087891 11.45775391 -4.93359375 12.37109375 C-6.54509152 13.64140485 -8.17529348 14.88799952 -9.8125 16.125 C-12.20968662 18.17973139 -13.42174671 20.29442293 -15 23 C-15.66 23 -16.32 23 -17 23 C-17.24878906 23.67546875 -17.49757813 24.3509375 -17.75390625 25.046875 C-19.52245978 29.23818054 -21.76221677 33.16109214 -23.99023438 37.12109375 C-28.17793667 44.77094541 -30.27444716 52.8065179 -32.25 61.25 C-36.15871381 77.28691164 -41.16035982 92.45488078 -49 107 C-49.60848612 108.33136763 -50.21331019 109.66442271 -50.8125 111 C-59.55731084 128.30435026 -74.19794783 143.50961043 -92.55078125 150.22265625 C-96.68944385 151.53620307 -100.68663232 152.47158174 -105 153 C-106.04929687 153.13148438 -107.09859375 153.26296875 -108.1796875 153.3984375 C-120.51887614 154.20985807 -131.71662673 148.41096567 -141.140625 140.67578125 C-141.75421875 140.12277344 -142.3678125 139.56976563 -143 139 C-143.81984375 138.27167969 -144.6396875 137.54335938 -145.484375 136.79296875 C-156.09644567 126.82452958 -161.44063557 115.67095227 -162.203125 101.125 C-162.45521212 87.73367994 -160.72838047 75.26620601 -155 63 C-154.66484375 62.22785156 -154.3296875 61.45570313 -153.984375 60.66015625 C-148.02431497 47.71171596 -138.75158923 36.28855652 -128 27 C-127.34 27 -126.68 27 -126 27 C-126 26.34 -126 25.68 -126 25 C-124.35 24.34 -122.7 23.68 -121 23 C-121 22.34 -121 21.68 -121 21 C-118.09451118 18.95830515 -116.59857954 18 -113 18 C-113 17.34 -113 16.68 -113 16 C-112.01 16 -111.02 16 -110 16 C-110 15.34 -110 14.68 -110 14 C-94.60643464 6.3259217 -79.00893883 0.77167936 -62 -2 C-60.92492187 -2.17789062 -59.84984375 -2.35578125 -58.7421875 -2.5390625 C-53.93616184 -3.13103643 -49.14868725 -3.36181805 -44.3125 -3.5625 C-42.84103516 -3.6251001 -42.84103516 -3.6251001 -41.33984375 -3.68896484 C-8.81745449 -5.00991733 -8.81745449 -5.00991733 0 0 Z " fill="#E22032" transform="translate(579,260)"/>
<path d="M0 0 C1 1 1 1 1.23828125 4.0625 C0.96732172 8.53999514 -0.14507762 11.88465966 -1.8125 16 C-2.07353516 16.67289063 -2.33457031 17.34578125 -2.60351562 18.0390625 C-3.86676305 21.2704806 -5.19927401 24.45262971 -6.59765625 27.62890625 C-7.88753059 30.72963483 -8.82929443 33.68035357 -9.625 36.9375 C-9.86476563 37.89527344 -10.10453125 38.85304687 -10.3515625 39.83984375 C-11.88963911 47.33565082 -12.16019847 54.55886025 -12.125 62.1875 C-12.12306641 63.19820557 -12.12113281 64.20891113 -12.11914062 65.25024414 C-12.07707062 72.5417932 -11.77970718 79.74593853 -11 87 C-15.80816583 88.40651243 -20.62587372 89.64845561 -25.5 90.8125 C-51.03280074 97.14225944 -78.83264622 109.24586683 -95.77734375 130.36328125 C-96.87755859 131.66845703 -96.87755859 131.66845703 -98 133 C-98.66 133 -99.32 133 -100 133 C-100 133.66 -100 134.32 -100 135 C-100.66 135 -101.32 135 -102 135 C-102.309375 135.78375 -102.61875 136.5675 -102.9375 137.375 C-104 140 -104 140 -105 142 C-105.66 142 -106.32 142 -107 142 C-107.66 143.98 -108.32 145.96 -109 148 C-109.66 148 -110.32 148 -111 148 C-111.27070313 148.87527344 -111.54140625 149.75054687 -111.8203125 150.65234375 C-112.93994607 153.82958207 -114.28424838 156.59941601 -115.875 159.5625 C-125.24492966 178.09667794 -128.62866954 202.69036763 -123 223 C-120.60455814 229.3995016 -117.37462703 235.34101924 -113.91796875 241.22265625 C-113 243 -113 243 -113 245 C-112.34 245 -111.68 245 -111 245 C-111 245.66 -111 246.32 -111 247 C-110.34 247 -109.68 247 -109 247 C-107.2734375 248.75 -107.2734375 248.75 -105.375 251 C-104.42753906 252.11375 -104.42753906 252.11375 -103.4609375 253.25 C-102.97882813 253.8275 -102.49671875 254.405 -102 255 C-102.33 255.66 -102.66 256.32 -103 257 C-110.95800678 254.707015 -117.81917721 251.05100513 -125 247 C-125 246.34 -125 245.68 -125 245 C-125.70640625 244.77828125 -126.4128125 244.5565625 -127.140625 244.328125 C-130.63773003 242.7037866 -133.07611014 240.45870046 -135.75 237.75 C-136.27150635 237.22204834 -136.7930127 236.69409668 -137.33032227 236.15014648 C-146.25307036 226.81232334 -151.99235953 216.26066279 -156 204 C-156.391875 202.824375 -156.78375 201.64875 -157.1875 200.4375 C-159.54047343 190.48261242 -160.32870674 180.9072673 -160.25 170.6875 C-160.24250732 169.40294922 -160.23501465 168.11839844 -160.22729492 166.79492188 C-160.12754452 158.01688688 -159.77867594 149.61832671 -158 141 C-157.83338867 140.18595703 -157.66677734 139.37191406 -157.49511719 138.53320312 C-155.32254251 128.13936573 -152.89851104 118.47132321 -148 109 C-146.54385323 105.94621564 -145.11817682 102.87828097 -143.6875 99.8125 C-142.46053777 97.20728752 -141.23012795 94.60371996 -140 92 C-139.34 92 -138.68 92 -138 92 C-137.34 90.02 -136.68 88.04 -136 86 C-135.34 86 -134.68 86 -134 86 C-133.690625 85.21625 -133.38125 84.4325 -133.0625 83.625 C-132 81 -132 81 -131 79 C-130.34 79 -129.68 79 -129 79 C-128.773125 78.29875 -128.54625 77.5975 -128.3125 76.875 C-126.66158712 73.25871465 -124.7091165 70.91230024 -122 68 C-121.34 68 -120.68 68 -120 68 C-120 67.34 -120 66.68 -120 66 C-119.34 66 -118.68 66 -118 66 C-117.61328125 65.12601563 -117.61328125 65.12601563 -117.21875 64.234375 C-115.90165983 61.8197097 -114.44911616 60.18259823 -112.5 58.25 C-111.58734375 57.32960938 -111.58734375 57.32960938 -110.65625 56.390625 C-109 55 -109 55 -107 55 C-107 54.34 -107 53.68 -107 53 C-106.34 53 -105.68 53 -105 53 C-105 52.34 -105 51.68 -105 51 C-102.78581383 49.1084693 -100.56433016 47.32350321 -98.25 45.5625 C-97.61578125 45.07201172 -96.9815625 44.58152344 -96.328125 44.07617188 C-95.10041885 43.12853619 -93.86940832 42.18516245 -92.63476562 41.24658203 C-91.30208534 40.2303536 -89.98463304 39.19418025 -88.671875 38.15234375 C-87 37 -87 37 -85 37 C-85 36.34 -85 35.68 -85 35 C-83.52563477 33.66235352 -83.52563477 33.66235352 -81.44140625 32.12890625 C-80.67159424 31.55994629 -79.90178223 30.99098633 -79.10864258 30.40478516 C-77.848302 29.492854 -77.848302 29.492854 -76.5625 28.5625 C-75.70229248 27.93649902 -74.84208496 27.31049805 -73.95581055 26.66552734 C-21.688225 -11.06542092 -21.688225 -11.06542092 0 0 Z " fill="#E21F31" transform="translate(527,155)"/>
<path d="M0 0 C0 0.66 0 1.32 0 2 C0.66 2 1.32 2 2 2 C0.75853752 8.47021031 -0.67225069 14.85759464 -2.31640625 21.23828125 C-4.12867776 31.21095249 -4.18168353 41.39096706 -4.1875 51.5 C-4.19974609 52.62019531 -4.21199219 53.74039063 -4.22460938 54.89453125 C-4.23823942 62.7726991 -3.41112099 70.25455827 -2 78 C-1.78859375 79.2065625 -1.5771875 80.413125 -1.359375 81.65625 C0.36504328 89.70353529 3.32928828 96.65857657 7 104 C7.60328125 105.3303125 7.60328125 105.3303125 8.21875 106.6875 C10.89706201 112.47844488 14.27788658 117.12315031 18.42578125 121.96875 C20 124 20 124 20 126 C20.66 126 21.32 126 22 126 C22 126.66 22 127.32 22 128 C22.66 128 23.32 128 24 128 C25.625 129.375 25.625 129.375 27 131 C27 131.66 27 132.32 27 133 C27.66 133 28.32 133 29 133 C29.33 133.99 29.66 134.98 30 136 C21.51065239 143.66779784 13.1020564 144.94851036 2 144.51171875 C-9.68363656 143.61419481 -22.01972189 138.52558943 -31 131 C-31 130.34 -31 129.68 -31 129 C-31.83144531 128.65195312 -31.83144531 128.65195312 -32.6796875 128.296875 C-35.62112872 126.65283715 -37.72548542 124.61370093 -40.125 122.25 C-40.99382812 121.40953125 -41.86265625 120.5690625 -42.7578125 119.703125 C-45.12612859 116.84794254 -46.07283332 114.56282028 -47 111 C-47.66 111 -48.32 111 -49 111 C-58.92724106 93.5091467 -66.97538316 74.82773478 -74 56 C-74.48775386 54.70943597 -74.97605951 53.41908039 -75.46484375 52.12890625 C-77.91423142 45.64887072 -80.31342856 39.15554386 -82.625 32.625 C-86.29690176 22.02801268 -86.29690176 22.02801268 -91.25 12 C-93 9 -93 9 -93 7 C-93.66 7 -94.32 7 -95 7 C-95.66 6.154375 -96.32 5.30875 -97 4.4375 C-100.02652279 0.59965032 -103.83622684 -1.8214271 -107.890625 -4.484375 C-110 -6 -110 -6 -111 -8 C-111.039992 -9.99960012 -111.04346799 -12.00047242 -111 -14 C-79.25998023 -29.04323682 -29.50342513 -15.75751115 0 0 Z " fill="#E21F31" transform="translate(356,274)"/>
<path d="M0 0 C12.90019962 -0.04638922 25.80037932 -0.08190273 38.70064545 -0.10362434 C44.69108532 -0.11405087 50.68146802 -0.12818952 56.671875 -0.15087891 C62.45551616 -0.17264746 68.2391024 -0.18457714 74.02278137 -0.18975449 C76.22671879 -0.19344302 78.43065329 -0.20064579 80.63456726 -0.21146011 C83.72714681 -0.22602821 86.8195009 -0.2279757 89.91210938 -0.22705078 C91.27157684 -0.23783661 91.27157684 -0.23783661 92.6585083 -0.24884033 C100.81451976 -0.22253435 107.59857113 1.60767843 115 5 C115 5.66 115 6.32 115 7 C115.88171875 7.38865234 115.88171875 7.38865234 116.78125 7.78515625 C123.40853515 11.41382823 127.04697419 18.03741933 129.28125 25.01953125 C132.68986756 39.15417906 130.70828619 52.22353126 124 65 C123.34 65 122.68 65 122 65 C121.79375 65.556875 121.5875 66.11375 121.375 66.6875 C117.83516665 72.64085609 112.37193701 75.11478705 106.03515625 77.28515625 C101.02239308 78.46576842 96.11322606 78.32124981 91 78 C91.58007812 78.95519531 92.16015625 79.91039062 92.7578125 80.89453125 C97.3609826 88.50226032 101.81453751 96.15225784 106 104 C110.23627349 111.91779688 114.69046182 119.69694018 119.2175293 127.45117188 C119.67683838 128.23943359 120.13614746 129.02769531 120.609375 129.83984375 C121.02155273 130.54488037 121.43373047 131.24991699 121.85839844 131.97631836 C125 137.5453379 125 137.5453379 125 141 C118.84765625 141.09765625 118.84765625 141.09765625 116 141 C115.29738037 141.0316626 114.59476074 141.0633252 113.87084961 141.09594727 C111.3255799 141.06805899 109.39865124 140.8697636 107 140 C104.4509435 137.28399313 103.00966257 134.16468682 101.4375 130.8125 C100.51435823 128.9863025 99.58986974 127.16078516 98.6640625 125.3359375 C98.21836914 124.43198242 97.77267578 123.52802734 97.31347656 122.59667969 C95.46838615 118.94902511 93.40607591 115.44649144 91.3125 111.9375 C88 106.35470942 88 106.35470942 88 103 C87.34 103 86.68 103 86 103 C85.01246936 101.27559635 84.03531194 99.54524974 83.0625 97.8125 C82.51722656 96.84957031 81.97195313 95.88664063 81.41015625 94.89453125 C80.09420667 92.19337158 79.42698113 89.95643899 79 87 C78.34 87 77.68 87 77 87 C75.68 84.36 74.36 81.72 73 79 C54.19 78.67 35.38 78.34 16 78 C16.01160156 82.46402344 16.02320313 86.92804688 16.03515625 91.52734375 C16.0415831 95.07736432 16.04700736 98.62738325 16.05175018 102.17740631 C16.05704008 105.93005024 16.06411391 109.68267175 16.07543945 113.43530273 C16.08627141 117.04681687 16.09227749 120.65830921 16.09487724 124.26983833 C16.09673094 125.65060329 16.10035049 127.031367 16.10573006 128.41212273 C16.11294447 130.33975952 16.11340809 132.26741807 16.11352539 134.19506836 C16.115746 135.29427109 16.11796661 136.39347382 16.12025452 137.52598572 C16 140 16 140 15 141 C12.66839945 141.09909302 10.33370058 141.12970504 8 141.125 C6.72125 141.12757813 5.4425 141.13015625 4.125 141.1328125 C1 141 1 141 0 140 C-0.09641497 138.19039129 -0.12187398 136.37697872 -0.12025452 134.56480408 C-0.12162918 133.38544785 -0.12300385 132.20609161 -0.12442017 130.99099731 C-0.12082489 129.6854892 -0.11722961 128.37998108 -0.11352539 127.03491211 C-0.11324352 125.65547182 -0.11340125 124.27603139 -0.1139679 122.89659119 C-0.11425588 119.14055882 -0.10835905 115.38455811 -0.10139394 111.62853312 C-0.09516051 107.70739955 -0.09455661 103.78626533 -0.09336853 99.86512756 C-0.09025518 92.43488389 -0.08204175 85.00465486 -0.07201904 77.57441765 C-0.06085801 69.11748362 -0.05534748 60.6605489 -0.05032361 52.20360935 C-0.03985914 34.80239775 -0.02225963 17.40120042 0 0 Z M16 16 C16 31.51 16 47.02 16 63 C30.17674002 63.08733913 30.17674002 63.08733913 44.35351562 63.14648438 C50.1404654 63.16437864 55.927272 63.18548826 61.71411133 63.22631836 C66.38254421 63.2590491 71.05082343 63.27688184 75.71936226 63.28463173 C77.49545267 63.2901507 79.27153521 63.30092767 81.04755974 63.31719017 C96.00393012 63.92709598 96.00393012 63.92709598 108.875 57.375 C114.29271713 48.77039045 115.42058352 39.71548572 113.3125 29.75 C110.16080232 23.14644296 108.04026962 18.88779289 101 16 C98.09479789 15.73455673 95.41450123 15.61899464 92.51611328 15.65942383 C91.68618362 15.65898575 90.85625397 15.65854767 90.00117493 15.65809631 C87.27397658 15.66017657 84.54740268 15.68347128 81.8203125 15.70703125 C79.92317033 15.71262992 78.0260238 15.71689874 76.12887573 15.71989441 C71.14754153 15.7313218 66.16647178 15.76077087 61.1852417 15.79400635 C55.20219385 15.8301631 49.21905734 15.84387841 43.2359314 15.86136627 C34.15710394 15.89040944 25.07885621 15.94791136 16 16 Z " fill="#292928" transform="translate(398,459)"/>
<path d="M0 0 C2.81651786 0.96309501 5.44357053 2.10070847 8.1328125 3.37890625 C9.01573975 3.7975293 9.01573975 3.7975293 9.91650391 4.22460938 C14.70498239 6.51490982 19.42186046 8.93408074 24.1328125 11.37890625 C24.79958008 11.72002441 25.46634766 12.06114258 26.15332031 12.41259766 C33.50381977 16.17453632 40.54172509 20.0753563 47.1796875 25.03125 C49.19141804 26.5531639 49.19141804 26.5531639 52.1328125 27.37890625 C52.1328125 28.03890625 52.1328125 28.69890625 52.1328125 29.37890625 C53.38964844 29.71921875 53.38964844 29.71921875 54.671875 30.06640625 C58.8001393 31.63197826 61.96406769 33.78953113 65.5078125 36.37890625 C66.14847656 36.83007812 66.78914063 37.28125 67.44921875 37.74609375 C69.05211372 38.90127179 70.59822483 40.13441871 72.1328125 41.37890625 C72.1328125 42.03890625 72.1328125 42.69890625 72.1328125 43.37890625 C72.8959375 43.64703125 73.6590625 43.91515625 74.4453125 44.19140625 C77.04526953 45.34022447 78.52166673 46.05169569 80.1328125 48.37890625 C79.80074631 52.43360916 77.48529886 54.30487643 74.6328125 57.00390625 C71.46588087 59.88167649 71.46588087 59.88167649 69.1328125 63.37890625 C68.4728125 63.37890625 67.8128125 63.37890625 67.1328125 63.37890625 C66.88144531 64.1059375 66.63007813 64.83296875 66.37109375 65.58203125 C65.03674705 68.59588688 63.45679381 70.62885546 61.3203125 73.12890625 C57.6220492 77.61532403 54.7387528 82.19208277 52.1328125 87.37890625 C51.4728125 87.37890625 50.8128125 87.37890625 50.1328125 87.37890625 C50.03871094 88.0646875 49.94460938 88.75046875 49.84765625 89.45703125 C48.97035901 93.04292379 47.45845269 95.8885405 45.6953125 99.12890625 C45.07785156 100.27875 44.46039063 101.42859375 43.82421875 102.61328125 C42.1328125 105.37890625 42.1328125 105.37890625 40.1328125 106.37890625 C38.3996582 105.74560547 38.3996582 105.74560547 36.30859375 104.68359375 C35.53483398 104.29961426 34.76107422 103.91563477 33.96386719 103.52001953 C32.71718262 102.89329346 32.71718262 102.89329346 31.4453125 102.25390625 C19.33259085 96.35722349 7.3752578 92.31884207 -5.91796875 90.0546875 C-8.8671875 89.37890625 -8.8671875 89.37890625 -10.8671875 87.37890625 C-11.04663086 85.16186523 -11.04663086 85.16186523 -10.95703125 82.375 C-10.92367676 80.81712769 -10.92367676 80.81712769 -10.88964844 79.2277832 C-10.86161133 78.10202881 -10.83357422 76.97627441 -10.8046875 75.81640625 C-10.56761949 55.99503939 -12.35638106 36.24164465 -19.26953125 17.5390625 C-19.62072021 16.58713013 -19.62072021 16.58713013 -19.97900391 15.6159668 C-20.63593255 13.87018465 -21.32280034 12.13575137 -22.01171875 10.40234375 C-22.93696261 7.1323038 -23.09021768 5.53615596 -21.8671875 2.37890625 C-16.90708731 -3.08317999 -6.60073008 -1.42985842 0 0 Z " fill="#E21F32" transform="translate(321.8671875,153.62109375)"/>
<path d="M0 0 C15.49839905 -0.02311934 30.9967956 -0.04097941 46.49520779 -0.05181217 C53.69090295 -0.05697503 60.88658722 -0.06401753 68.08227539 -0.07543945 C74.35184694 -0.0853866 80.62141061 -0.0918535 86.89098984 -0.09408849 C90.21265621 -0.09539555 93.53429466 -0.09899997 96.85595512 -0.10573006 C100.55819947 -0.11293628 104.26039631 -0.11399112 107.96264648 -0.11352539 C109.07178909 -0.11712067 110.1809317 -0.12071594 111.32368469 -0.12442017 C112.82767319 -0.12235817 112.82767319 -0.12235817 114.36204529 -0.12025452 C115.23867042 -0.12117631 116.11529554 -0.1220981 117.01848507 -0.12304783 C119 0 119 0 120 1 C120.12682623 3.47163686 120.18520251 5.90290611 120.1875 8.375 C120.19974609 9.06078125 120.21199219 9.7465625 120.22460938 10.453125 C120.23552331 14.19296797 120.1266842 15.8099737 118 19 C117.34 19 116.68 19 116 19 C116 19.66 116 20.32 116 21 C115.34 21 114.68 21 114 21 C113.66548828 21.82757813 113.66548828 21.82757813 113.32421875 22.671875 C111.58445903 25.7305676 109.34235518 27.8073812 106.8125 30.25 C101.68089305 35.26811302 96.5768071 40.33449189 92.4375 46.22265625 C91.963125 46.80917969 91.48875 47.39570313 91 48 C90.34 48 89.68 48 89 48 C89 48.66 89 49.32 89 50 C88.34 50 87.68 50 87 50 C87 50.66 87 51.32 87 52 C86.34 52 85.68 52 85 52 C85 52.66 85 53.32 85 54 C84.34 54 83.68 54 83 54 C82.73195557 54.59022949 82.46391113 55.18045898 82.18774414 55.78857422 C80.99051006 58.01766904 79.73748805 59.55874782 77.99609375 61.3828125 C77.42052734 61.99253906 76.84496094 62.60226562 76.25195312 63.23046875 C75.35379883 64.16826172 75.35379883 64.16826172 74.4375 65.125 C73.24667673 66.37568283 72.05777889 67.62820262 70.87109375 68.8828125 C70.34443115 69.43340332 69.81776855 69.98399414 69.27514648 70.55126953 C67.89762196 71.99204489 67.89762196 71.99204489 67 74 C66.34 74 65.68 74 65 74 C65 74.66 65 75.32 65 76 C64.34 76 63.68 76 63 76 C63 76.66 63 77.32 63 78 C61.625 79.625 61.625 79.625 60 81 C59.34 81 58.68 81 58 81 C57.61908203 81.87398437 57.61908203 81.87398437 57.23046875 82.765625 C55.86679667 85.24188033 54.35774797 86.80520626 52.3125 88.75 C47.67866643 93.26588144 43.16031295 97.93374936 39.42578125 103.234375 C38.95527344 103.81703125 38.48476562 104.3996875 38 105 C37.34 105 36.68 105 36 105 C36 105.66 36 106.32 36 107 C35.34 107 34.68 107 34 107 C34 107.66 34 108.32 34 109 C33.34 109 32.68 109 32 109 C31.7421875 109.57234375 31.484375 110.1446875 31.21875 110.734375 C29.88634058 113.21128995 28.34943882 115.1341166 26.5 117.25 C25.58734375 118.30960938 25.58734375 118.30960938 24.65625 119.390625 C23 121 23 121 21 121 C21 121.66 21 122.32 21 123 C20.34 123 19.68 123 19 123 C19 123.66 19 124.32 19 125 C52.99 125 86.98 125 122 125 C122 129.95 122 134.9 122 140 C120.35809636 141.64190364 118.48039829 141.12604049 116.21691895 141.12698364 C114.66461327 141.13121338 114.66461327 141.13121338 113.08094788 141.13552856 C111.93597336 141.13350433 110.79099884 141.1314801 109.61132812 141.12939453 C107.81398476 141.13202301 107.81398476 141.13202301 105.98033142 141.13470459 C102.68495208 141.13836275 99.38963516 141.1374897 96.09425926 141.1343255 C92.65272307 141.13180149 89.21118962 141.13413956 85.76965332 141.13571167 C79.98917153 141.13753325 74.20870251 141.13512737 68.42822266 141.13037109 C61.73616466 141.12492849 55.04413713 141.12669116 48.35207987 141.1321975 C42.6162078 141.13672897 36.88034492 141.13737901 31.14447165 141.13475883 C27.71439712 141.13319624 24.28433693 141.13300179 20.85426331 141.13629532 C17.03238736 141.13970843 13.2105458 141.13498373 9.38867188 141.12939453 C8.24369736 141.13141876 7.09872284 141.13344299 5.91905212 141.13552856 C4.36674644 141.13129883 4.36674644 141.13129883 2.78308105 141.12698364 C1.87825737 141.12660662 0.97343369 141.12622959 0.0411911 141.12584114 C-2 141 -2 141 -3 140 C-4.3865351 127.50542803 -4.3865351 127.50542803 -1.54296875 122.3671875 C0.20963166 120.42641315 2.04323586 118.7305002 4 117 C4.52980469 116.27167969 5.05960938 115.54335938 5.60546875 114.79296875 C6.06566406 114.20128906 6.52585937 113.60960937 7 113 C7.66 113 8.32 113 9 113 C9.226875 112.46375 9.45375 111.9275 9.6875 111.375 C12.50447122 106.2776235 16.733016 101.92101233 21 98 C21.66 98 22.32 98 23 98 C23.4031543 97.11683105 23.4031543 97.11683105 23.81445312 96.21582031 C25.7746081 92.55223576 28.6742428 89.76577558 31.5 86.75 C32.09425781 86.1003125 32.68851563 85.450625 33.30078125 84.78125 C33.87183594 84.16765625 34.44289062 83.5540625 35.03125 82.921875 C35.55267578 82.36081055 36.07410156 81.79974609 36.61132812 81.22167969 C38 80 38 80 40 80 C40.309375 79.38125 40.61875 78.7625 40.9375 78.125 C41.625 76.75 42.3125 75.375 43 74 C43.66 74 44.32 74 45 74 C45 73.34 45 72.68 45 72 C45.66 72 46.32 72 47 72 C47.2578125 71.42765625 47.515625 70.8553125 47.78125 70.265625 C49.11365942 67.78871005 50.65056118 65.8658834 52.5 63.75 C53.41265625 62.69039062 53.41265625 62.69039062 54.34375 61.609375 C56 60 56 60 58 60 C58 59.34 58 58.68 58 58 C58.66 58 59.32 58 60 58 C60 57.34 60 56.68 60 56 C60.66 56 61.32 56 62 56 C62.25394531 55.41734375 62.50789063 54.8346875 62.76953125 54.234375 C64.13320333 51.75811967 65.64225203 50.19479374 67.6875 48.25 C72.32133357 43.73411856 76.83968705 39.06625064 80.57421875 33.765625 C81.27998047 32.89164062 81.27998047 32.89164062 82 32 C82.66 32 83.32 32 84 32 C84.268125 31.360625 84.53625 30.72125 84.8125 30.0625 C86 28 86 28 89 27 C89.268125 26.443125 89.53625 25.88625 89.8125 25.3125 C91 23 91 23 97 17 C64.99 16.67 32.98 16.34 0 16 C0 10.72 0 5.44 0 0 Z " fill="#2B2A2A" transform="translate(90,459)"/>
<path d="M0 0 C0.89874816 0.00092179 1.79749632 0.00184359 2.72347927 0.00279331 C3.75138073 0.00141865 4.77928219 0.00004398 5.83833218 -0.00137234 C6.975527 0.00222294 8.11272182 0.00581821 9.2843771 0.00952244 C10.47445873 0.00937641 11.66454037 0.00923038 12.89068508 0.00907993 C16.16326569 0.00965889 19.43580402 0.01468801 22.70837617 0.02165389 C26.1250196 0.02788815 29.54166379 0.02849128 32.95831203 0.0296793 C39.43232563 0.0327924 45.90632242 0.0410055 52.3803286 0.05102879 C59.74901216 0.06219058 67.11769651 0.06770054 74.48638642 0.07272422 C89.64814464 0.08318813 104.80988712 0.10078717 119.97163296 0.12304783 C119.99848391 2.60228584 120.01839843 5.08123623 120.03413296 7.56054783 C120.04251186 8.26759861 120.05089077 8.97464939 120.05952358 9.70312595 C120.06816883 11.50998342 120.02383307 13.31692386 119.97163296 15.12304783 C118.97163296 16.12304783 118.97163296 16.12304783 117.20876122 16.24609566 C116.4353769 16.24517386 115.66199259 16.24425207 114.86517239 16.24330235 C113.98031155 16.24467701 113.09545071 16.24605167 112.1837759 16.24746799 C110.7164275 16.24207508 110.7164275 16.24207508 109.21943569 16.23657322 C108.19516476 16.23671925 107.17089382 16.23686527 106.11558437 16.23701572 C102.71211066 16.23631611 99.30869092 16.22852146 95.90522671 16.22070408 C93.55253028 16.21884007 91.19983346 16.21741609 88.8471365 16.21641636 C82.64106591 16.21258982 76.43501856 16.20275838 70.22895718 16.19171238 C62.79008114 16.17970729 55.35119736 16.17509667 47.91231441 16.16925907 C36.59873775 16.1595467 25.2852121 16.14039108 13.97163296 16.12304783 C13.97163296 31.63304783 13.97163296 47.14304783 13.97163296 63.12304783 C48.95163296 63.12304783 83.93163296 63.12304783 119.97163296 63.12304783 C119.97163296 68.07304783 119.97163296 73.02304783 119.97163296 78.12304783 C84.99163296 78.12304783 50.01163296 78.12304783 13.97163296 78.12304783 C14.01124539 98.4823139 14.01124539 98.4823139 14.06172085 118.84155369 C14.06463972 121.38199923 14.06718835 123.92244523 14.06928921 126.46289158 C14.07190258 127.12712635 14.07451595 127.79136112 14.07720852 128.47572422 C14.08448984 130.4231764 14.08497136 132.3706504 14.08515835 134.31811619 C14.08737896 135.41731892 14.08959957 136.51652164 14.09188747 137.64903355 C13.97163296 140.12304783 13.97163296 140.12304783 12.97163296 141.12304783 C10.46027191 141.22279815 7.98259881 141.26186966 5.47163296 141.24804783 C4.41782436 141.25384861 4.41782436 141.25384861 3.34272671 141.25976658 C-1.90175326 141.24966161 -1.90175326 141.24966161 -3.02836704 140.12304783 C-3.12694024 138.32842015 -3.15468816 136.52987757 -3.15535069 134.7325449 C-3.15817051 133.56304798 -3.16099033 132.39355106 -3.16389561 131.18861485 C-3.16187138 129.89402851 -3.15984715 128.59944218 -3.15776157 127.26562595 C-3.1591156 125.89765978 -3.16089553 124.52969397 -3.16307163 123.16172886 C-3.16764585 119.43662409 -3.16585646 115.71154689 -3.16269255 111.98644161 C-3.16016888 108.09647005 -3.1625065 104.20650092 -3.16407871 100.31652927 C-3.16590039 93.78279284 -3.16349415 87.2490677 -3.15873814 80.71533298 C-3.15329552 73.150771 -3.15505818 65.58623596 -3.16056454 58.02167463 C-3.16509572 51.53846299 -3.1657462 45.05525947 -3.16312587 38.57204676 C-3.16156313 34.69484197 -3.16136927 30.81764988 -3.16466236 26.9404459 C-3.16754115 23.29617196 -3.16556525 19.65193292 -3.1597681 16.00766277 C-3.15780493 14.02426928 -3.16079435 12.04087285 -3.16389561 10.05748081 C-3.16107578 8.88798389 -3.15825596 7.71848698 -3.15535069 6.51355076 C-3.15497366 5.49073757 -3.15459663 4.46792439 -3.15420818 3.41411686 C-2.99386208 0.49484897 -2.91373002 0.17675704 0 0 Z " fill="#292928" transform="translate(619.0283670425415,458.8769521713257)"/>
<path d="M0 0 C0.74886475 0.00523682 1.49772949 0.01047363 2.26928711 0.01586914 C3.07817383 0.0190918 3.88706055 0.02231445 4.72045898 0.02563477 C5.5705957 0.03401367 6.42073242 0.04239258 7.29663086 0.05102539 C8.15063477 0.05553711 9.00463867 0.06004883 9.88452148 0.06469727 C12.00108749 0.07652166 14.11761771 0.0944577 16.23413086 0.11352539 C16.96329753 1.86352539 17.69246419 3.61352539 18.42163086 5.36352539 C18.8844043 6.47211914 19.34717773 7.58071289 19.82397461 8.72290039 C20.6763893 10.77247366 21.5241434 12.82400594 22.36303711 14.87915039 C24.99333331 21.29450697 27.80466494 27.614081 30.67163086 33.92602539 C33.85469584 40.94119964 36.87200806 47.98410329 39.65209961 55.16821289 C41.27606621 59.29665119 43.04308423 63.36322653 44.79658508 67.43792725 C47.77262419 74.35530819 50.69511868 81.2948272 53.60913086 88.23852539 C53.89137512 88.91028809 54.17361938 89.58205078 54.4644165 90.27416992 C58.25723908 99.30615117 61.9596867 108.366265 65.5402832 117.48486328 C68.07639762 123.87852679 70.95475168 130.06871916 73.98413086 136.24243164 C75.23413086 139.11352539 75.23413086 139.11352539 75.23413086 142.11352539 C72.62824196 142.24846785 70.02930975 142.34754838 67.42163086 142.42602539 C66.31464844 142.48886719 66.31464844 142.48886719 65.18530273 142.55297852 C63.02709961 142.60180664 63.02709961 142.60180664 59.23413086 142.11352539 C57.36694336 139.89477539 57.36694336 139.89477539 56.23413086 137.11352539 C55.84612305 136.34395508 55.45811523 135.57438477 55.05834961 134.78149414 C52.27850484 128.71550985 49.85039133 122.57005988 47.54003906 116.31518555 C44.01787696 106.78224249 40.29850767 97.33281985 36.09350586 88.07836914 C35.25113257 86.15239747 34.5123376 84.21467124 33.79663086 82.23852539 C32.62783666 79.02434134 31.2511215 75.95875242 29.79663086 72.86352539 C28.00962571 69.00146052 26.53077069 65.16618104 25.23413086 61.11352539 C23.67947098 56.26298657 21.75395929 51.76297714 19.58569336 47.16040039 C17.97543004 43.530327 16.59945711 39.84111049 15.23413086 36.11352539 C12.8585821 29.63447703 10.21621829 23.34160179 7.23413086 17.11352539 C5.22121897 20.13289323 4.05645894 22.86351359 2.73413086 26.23852539 C2.20435484 27.57973913 1.67439235 28.92087923 1.14428711 30.26196289 C0.8466748 31.01832031 0.5490625 31.77467773 0.24243164 32.55395508 C-1.76968785 37.66171796 -3.7981097 42.76295172 -5.82836914 47.86352539 C-6.44518555 49.42417725 -6.44518555 49.42417725 -7.07446289 51.01635742 C-9.43909967 56.95713079 -11.96248599 62.78847729 -14.63867188 68.5949707 C-16.18287292 72.04525833 -17.49258423 75.55635408 -18.76586914 79.11352539 C-20.44405699 83.69942175 -22.18730026 88.18990445 -24.26586914 92.61352539 C-26.33299986 97.01942901 -28.08245896 101.489096 -29.76586914 106.05102539 C-33.36391801 115.79884154 -37.32748114 125.33315597 -41.75024414 134.73852539 C-42.82097216 137.04763055 -42.82097216 137.04763055 -43.28149414 139.36352539 C-43.44133789 139.94102539 -43.60118164 140.51852539 -43.76586914 141.11352539 C-46.76900662 142.61509413 -49.55654437 142.20633743 -52.89086914 142.17602539 C-54.17219727 142.16700195 -55.45352539 142.15797852 -56.77368164 142.14868164 C-58.25481445 142.1312793 -58.25481445 142.1312793 -59.76586914 142.11352539 C-60.90309396 138.77807369 -60.65540549 137.03843734 -59.32446289 133.80493164 C-58.99099854 132.9819458 -58.65753418 132.15895996 -58.31396484 131.31103516 C-57.94746826 130.44148193 -57.58097168 129.57192871 -57.20336914 128.67602539 C-56.83493896 127.77875732 -56.46650879 126.88148926 -56.08691406 125.95703125 C-53.59161742 119.9311956 -50.92162508 114.01098335 -48.12915039 108.11743164 C-46.23300203 103.93938555 -44.65753564 99.65796938 -43.04711914 95.36352539 C-41.3057842 90.94648067 -39.27253501 86.68677134 -37.24633789 82.39477539 C-35.26424239 78.00174051 -33.58860686 73.51624078 -31.94165039 68.98852539 C-30.78254389 66.1542982 -29.34356676 63.73039984 -27.76586914 61.11352539 C-27.1393265 59.50469131 -26.55724683 57.87798047 -26.01586914 56.23852539 C-24.36954071 51.54015733 -22.41239686 47.09636357 -20.26586914 42.61352539 C-17.85176929 37.55898412 -15.76223873 32.50476138 -13.93383789 27.21118164 C-11.47485654 20.68953546 -8.48154274 14.38169168 -5.61254883 8.0324707 C-4.89961687 6.41665605 -4.23689256 4.77882289 -3.58618164 3.13696289 C-2.37637534 0.15277403 -2.37637534 0.15277403 0 0 Z " fill="#292928" transform="translate(293.765869140625,457.886474609375)"/>
<path d="M0 0 C-0.36834013 2.65204896 -0.6867691 3.73840056 -2.77734375 5.484375 C-3.49019531 5.90203125 -4.20304687 6.3196875 -4.9375 6.75 C-5.64777344 7.17796875 -6.35804688 7.6059375 -7.08984375 8.046875 C-9 9 -9 9 -11 9 C-11 9.66 -11 10.32 -11 11 C-13.11420846 12.64505267 -15.23020636 14.17669889 -17.4375 15.6875 C-18.73141722 16.59239529 -20.02438647 17.49864759 -21.31640625 18.40625 C-22.26604248 19.07140625 -22.26604248 19.07140625 -23.23486328 19.75 C-29.26468766 24.0200831 -34.88205561 28.66735659 -40.2734375 33.71484375 C-42 35 -42 35 -45 35 C-45 34.34 -45 33.68 -45 33 C-45.56460938 32.74605469 -46.12921875 32.49210937 -46.7109375 32.23046875 C-49.29825174 30.83967697 -51.36380655 29.18700727 -53.625 27.3125 C-58.59413088 23.28367045 -63.70459469 19.58580798 -69 16 C-69.90951416 15.38342529 -69.90951416 15.38342529 -70.83740234 14.75439453 C-72.8471798 13.39462129 -74.86032844 12.04001018 -76.875 10.6875 C-77.51783936 10.25453613 -78.16067871 9.82157227 -78.82299805 9.37548828 C-81.80249321 7.38759105 -84.73483321 5.48491254 -88 4 C-87.67293489 1.12560088 -87.19054349 0.16254378 -84.953125 -1.74609375 C-56.26175875 -19.69892841 -28.78351715 -14.88000886 0 0 Z " fill="#E22031" transform="translate(458,157)"/>
<path d="M0 0 C0.70253906 0.00386719 1.40507813 0.00773437 2.12890625 0.01171875 C2.83144531 0.00785156 3.53398438 0.00398438 4.2578125 0 C9.50229247 0.01010497 9.50229247 0.01010497 10.62890625 1.13671875 C10.72747945 2.93134643 10.75522737 4.729889 10.75588989 6.52722168 C10.75870972 7.6967186 10.76152954 8.86621552 10.76443481 10.07115173 C10.76241058 11.36573807 10.76038635 12.6603244 10.75830078 13.99414062 C10.7596548 15.3621068 10.76143474 16.73007261 10.76361084 18.09803772 C10.76818506 21.82314249 10.76639566 25.54821969 10.76323175 29.27332497 C10.76070809 33.16329653 10.76304571 37.05326566 10.76461792 40.9432373 C10.7664396 47.47697373 10.76403335 54.01069888 10.75927734 60.54443359 C10.75383473 68.10899558 10.75559738 75.67353061 10.76110375 83.23809195 C10.76563493 89.72130359 10.7662854 96.2045071 10.76366508 102.68771982 C10.76210233 106.5649246 10.76190847 110.4421167 10.76520157 114.31932068 C10.76808036 117.96359462 10.76610445 121.60783366 10.76030731 125.25210381 C10.75834413 127.2354973 10.76133356 129.21889373 10.76443481 131.20228577 C10.76020508 132.95653114 10.76020508 132.95653114 10.75588989 134.74621582 C10.75551287 135.76902901 10.75513584 136.79184219 10.75474739 137.84564972 C10.62890625 140.13671875 10.62890625 140.13671875 9.62890625 141.13671875 C7.2973057 141.23581177 4.96260683 141.26642379 2.62890625 141.26171875 C1.35015625 141.26429688 0.07140625 141.266875 -1.24609375 141.26953125 C-4.37109375 141.13671875 -4.37109375 141.13671875 -5.37109375 140.13671875 C-5.49039529 138.72018345 -5.54172161 137.29784892 -5.56536865 135.87649536 C-5.58264008 134.95704636 -5.5999115 134.03759735 -5.6177063 133.09028625 C-5.63139252 132.07323105 -5.64507874 131.05617584 -5.65917969 130.00830078 C-5.67699493 128.94317764 -5.69481018 127.8780545 -5.71316528 126.78065491 C-5.86796672 116.92332585 -5.95513156 107.06498584 -6.02315903 97.20671272 C-6.06930268 90.58223755 -6.13661847 83.95953468 -6.25585938 77.3359375 C-6.37067918 70.93496192 -6.43107158 64.53557621 -6.45368195 58.13363266 C-6.47143089 55.69751592 -6.50819926 53.26145791 -6.56468964 50.82593155 C-7.03084293 29.72589884 -7.03084293 29.72589884 -1.35797501 23.48974419 C0.82980682 21.47160738 3.12437167 19.74072511 5.62890625 18.13671875 C4.88108887 18.07919434 4.13327148 18.02166992 3.36279297 17.96240234 C2.50186035 17.89617676 1.64092773 17.82995117 0.75390625 17.76171875 C-0.15101563 17.69210937 -1.0559375 17.6225 -1.98828125 17.55078125 C-4.37109375 17.13671875 -4.37109375 17.13671875 -6.37109375 15.13671875 C-6.6015625 11.9140625 -6.6015625 11.9140625 -6.55859375 8.07421875 C-6.55214844 6.80449219 -6.54570313 5.53476562 -6.5390625 4.2265625 C-6.26326787 -0.84677589 -4.64107037 0.00894233 0 0 Z " fill="#292928" transform="translate(567.37109375,458.86328125)"/>
<path d="M0 0 C4.31104604 0.55842565 4.31104604 0.55842565 6.5703125 3.4453125 C7.43177982 4.71435575 8.26853381 6.00046644 9.08203125 7.30078125 C9.72495117 8.26467773 9.72495117 8.26467773 10.38085938 9.24804688 C11.53181591 10.98076615 12.65222197 12.73367673 13.76953125 14.48828125 C14.75953125 15.97328125 14.75953125 15.97328125 15.76953125 17.48828125 C17.00112733 15.96941462 18.2296701 14.44807207 19.45703125 12.92578125 C20.19179688 12.01957031 20.9265625 11.11335937 21.68359375 10.1796875 C23.40414506 7.95972523 24.87023719 5.75218631 26.33203125 3.36328125 C27.13640625 2.41453125 27.94078125 1.46578125 28.76953125 0.48828125 C31.07953125 0.48828125 33.38953125 0.48828125 35.76953125 0.48828125 C35.76953125 15.00828125 35.76953125 29.52828125 35.76953125 44.48828125 C33.45953125 44.48828125 31.14953125 44.48828125 28.76953125 44.48828125 C26.9655825 42.6843325 27.53247336 39.92150326 27.453125 37.484375 C27.41123047 36.26943359 27.36933594 35.05449219 27.32617188 33.80273438 C27.28685547 32.52333984 27.24753906 31.24394531 27.20703125 29.92578125 C27.16384766 28.64251953 27.12066406 27.35925781 27.07617188 26.03710938 C26.96968325 22.85428272 26.86767163 19.67137451 26.76953125 16.48828125 C26.35960937 17.13796875 25.9496875 17.78765625 25.52734375 18.45703125 C24.98851562 19.29234375 24.4496875 20.12765625 23.89453125 20.98828125 C23.36085938 21.82359375 22.8271875 22.65890625 22.27734375 23.51953125 C21.77976562 24.16921875 21.2821875 24.81890625 20.76953125 25.48828125 C20.10953125 25.48828125 19.44953125 25.48828125 18.76953125 25.48828125 C18.76953125 26.14828125 18.76953125 26.80828125 18.76953125 27.48828125 C16.64453125 27.92578125 16.64453125 27.92578125 13.76953125 27.48828125 C11.4584115 25.39094008 9.62818683 22.98680187 7.76953125 20.48828125 C6.77953125 19.16828125 5.78953125 17.84828125 4.76953125 16.48828125 C4.43953125 25.72828125 4.10953125 34.96828125 3.76953125 44.48828125 C1.45953125 44.48828125 -0.85046875 44.48828125 -3.23046875 44.48828125 C-5.179108 42.539642 -4.35965615 39.59019405 -4.36941528 36.99707031 C-4.36739105 36.08666992 -4.36536682 35.17626953 -4.36328125 34.23828125 C-4.36423798 33.30983398 -4.3651947 32.38138672 -4.36618042 31.42480469 C-4.3668623 29.4576816 -4.36500747 27.49055629 -4.36083984 25.5234375 C-4.3554917 22.50125099 -4.36078457 19.4792131 -4.3671875 16.45703125 C-4.36652672 14.55078092 -4.36524556 12.64453068 -4.36328125 10.73828125 C-4.36530548 9.82788086 -4.36732971 8.91748047 -4.36941528 7.97949219 C-4.34185456 0.6562658 -4.34185456 0.6562658 0 0 Z " fill="#282726" transform="translate(366.23046875,640.51171875)"/>
<path d="M0 0 C3.61413517 2.77030625 4.43325333 5.52761498 5.125 9.9375 C4.125 10.9375 4.125 10.9375 1.3125 11.25 C-2.5579914 10.87054006 -3.41972837 9.831213 -5.875 6.9375 C-8.45620066 5.64689967 -10.36919829 5.80477667 -13.25 5.8125 C-14.20648438 5.80992187 -15.16296875 5.80734375 -16.1484375 5.8046875 C-18.55640854 5.92198122 -20.57490068 6.25074049 -22.875 6.9375 C-22.875 8.9175 -22.875 10.8975 -22.875 12.9375 C-17.57322061 15.39467083 -12.22331102 15.68462396 -6.46875 16.27734375 C-1.68625921 17.15586652 2.08719527 19.06859775 5.125 22.9375 C6.4130764 27.21750069 6.4112637 30.98925151 5.125 35.25 C2.07621076 39.34681054 -1.3926683 41.17370563 -6.3125 42.6875 C-13.90884167 43.4286065 -22.28653427 43.50972835 -28.62109375 38.578125 C-30.82740862 36.1530537 -31.8328067 34.32567835 -32.1875 31.0625 C-32.084375 30.36125 -31.98125 29.66 -31.875 28.9375 C-28.5625 28.6875 -28.5625 28.6875 -24.875 28.9375 C-24.39933594 29.57300781 -23.92367188 30.20851563 -23.43359375 30.86328125 C-21.02261602 34.07187568 -18.40550364 34.1761854 -14.59375 34.83203125 C-10.2922461 34.99889994 -6.75713427 33.68164728 -2.875 31.9375 C-2.875 29.6275 -2.875 27.3175 -2.875 24.9375 C-4.70224609 24.77314453 -4.70224609 24.77314453 -6.56640625 24.60546875 C-8.19016288 24.44590885 -9.8138577 24.28571907 -11.4375 24.125 C-12.23736328 24.05474609 -13.03722656 23.98449219 -13.86132812 23.91210938 C-19.86320179 23.29967329 -25.30927246 22.44574688 -29.79296875 18.0625 C-31.0917584 15.51180841 -31.24403435 13.79031052 -31.1875 10.9375 C-31.18363281 10.091875 -31.17976563 9.24625 -31.17578125 8.375 C-30.85197367 5.75089701 -30.30143912 4.15535219 -28.875 1.9375 C-21.19840382 -3.58964925 -8.45688525 -4.67761785 0 0 Z " fill="#272626" transform="translate(517.875,643.0625)"/>
<path d="M0 0 C2.31 0 4.62 0 7 0 C7 5.94 7 11.88 7 18 C15.25 18 23.5 18 32 18 C32 12.06 32 6.12 32 0 C34.31 0 36.62 0 39 0 C40.16052214 4.60751492 40.14471402 9.04871382 40.1328125 13.765625 C40.13376923 14.5996283 40.13472595 15.43363159 40.13571167 16.29290771 C40.13638997 18.04781164 40.13456017 19.80271813 40.13037109 21.55761719 C40.1249908 24.25461378 40.13034172 26.95144588 40.13671875 29.6484375 C40.13605844 31.35416704 40.13477824 33.05989647 40.1328125 34.765625 C40.13483673 35.57598206 40.13686096 36.38633911 40.13894653 37.22125244 C40.11496889 42.88503111 40.11496889 42.88503111 39 44 C36.69 44 34.38 44 32 44 C31.505 35.09 31.505 35.09 31 26 C23.08 26 15.16 26 7 26 C7 31.94 7 37.88 7 44 C4.69 44 2.38 44 0 44 C-1.91811925 42.08188075 -1.12906827 39.23882512 -1.13894653 36.68690491 C-1.1369223 35.80151535 -1.13489807 34.91612579 -1.1328125 34.00390625 C-1.13376923 33.1000267 -1.13472595 32.19614716 -1.13571167 31.26487732 C-1.1363936 29.34902884 -1.13453841 27.43317806 -1.13037109 25.51733398 C-1.12502919 22.57856058 -1.13031245 19.63994045 -1.13671875 16.70117188 C-1.13605785 14.84374966 -1.13477644 12.98632754 -1.1328125 11.12890625 C-1.13483673 10.24554092 -1.13686096 9.3621756 -1.13894653 8.45204163 C-1.11495408 2.22990815 -1.11495408 2.22990815 0 0 Z " fill="#2C2B2B" transform="translate(548,641)"/>
<path d="M0 0 C2.31 0 4.62 0 7 0 C7.33 6.93 7.66 13.86 8 21 C9.41152344 19.4840625 10.82304687 17.968125 12.27734375 16.40625 C13.6758093 14.94516659 15.07445028 13.48424108 16.4777832 12.02783203 C17.44327183 11.0172905 18.40050576 9.99879086 19.34887695 8.97216797 C27.26322589 0.4221784 27.26322589 0.4221784 31.69970703 -0.65625 C34.19140625 -0.65625 34.19140625 -0.65625 38 0 C37.41889329 3.42754467 36.31446376 5.04538661 33.83984375 7.453125 C33.21142578 8.071875 32.58300781 8.690625 31.93554688 9.328125 C31.27619141 9.96234375 30.61683594 10.5965625 29.9375 11.25 C29.27427734 11.8996875 28.61105469 12.549375 27.92773438 13.21875 C26.29170683 14.8194676 24.64909088 16.41276193 23 18 C24.27729975 21.55287745 25.76875035 24.24503365 28.125 27.1875 C31 30.784689 31 30.784689 31 33 C31.66 33 32.32 33 33 33 C34.2890625 34.390625 34.2890625 34.390625 35.625 36.25 C36.07101562 36.85328125 36.51703125 37.4565625 36.9765625 38.078125 C38 40 38 40 38 44 C31.55667276 44.36471664 31.55667276 44.36471664 29.1875 42.8125 C27.76288931 40.63809421 26.86015117 38.44812255 26 36 C25.34 36 24.68 36 24 36 C22.71993203 34.21601386 21.52339649 32.37146094 20.375 30.5 C19.74335938 29.4790625 19.11171875 28.458125 18.4609375 27.40625 C17.97882813 26.6121875 17.49671875 25.818125 17 25 C15.87411986 25.95729916 14.7493285 26.91587895 13.625 27.875 C12.68527344 28.67550781 12.68527344 28.67550781 11.7265625 29.4921875 C8.19836133 32.57337676 7.70114897 33.95019814 7.375 38.625 C7.30023438 39.62789062 7.22546875 40.63078125 7.1484375 41.6640625 C7.09945312 42.43492187 7.05046875 43.20578125 7 44 C4.69 44 2.38 44 0 44 C0 29.48 0 14.96 0 0 Z " fill="#282827" transform="translate(239,641)"/>
<path d="M0 0 C2.33294775 -0.04241723 4.66702567 -0.04092937 7 0 C8.80449591 1.80449591 8.19451153 4.57658638 8.24609375 7.01171875 C8.27896484 8.24470703 8.31183594 9.47769531 8.34570312 10.74804688 C8.40644411 13.35473962 8.46378816 15.96151393 8.51757812 18.56835938 C8.56881836 20.42750977 8.56881836 20.42750977 8.62109375 22.32421875 C8.6461499 23.45947998 8.67120605 24.59474121 8.69702148 25.7644043 C9.01017688 29.10868185 9.81576471 31.86721053 11 35 C12.74906659 35.19601608 14.49931846 35.38147403 16.25 35.5625 C17.22453125 35.66691406 18.1990625 35.77132812 19.203125 35.87890625 C21.7631352 35.98974468 23.58148159 35.77738092 26 35 C26 34.34 26 33.68 26 33 C26.66 33 27.32 33 28 33 C29.08895891 29.41922407 29.20189808 25.99531977 29.31640625 22.265625 C29.35830078 20.97011719 29.40019531 19.67460938 29.44335938 18.33984375 C29.48316671 16.97656524 29.52287906 15.61328394 29.5625 14.25 C29.60572274 12.87108125 29.64933821 11.49217474 29.69335938 10.11328125 C29.79943958 6.7422881 29.9014985 3.37122174 30 0 C32.33294775 -0.04241723 34.66702567 -0.04092937 37 0 C39.61004597 2.61004597 38.2348266 9.99494562 38.25 13.5 C38.270625 14.66015625 38.29125 15.8203125 38.3125 17.015625 C38.34952886 25.19900224 37.75991986 32.62757116 32.75 39.375 C28.47598887 43.4547379 24.35314232 45.12891597 18.5 45.4375 C12.38866751 45.2088447 8.7708431 42.53473069 4.1875 38.5625 C-2.40679728 30.83775176 -1.08234555 19.48240635 -1.125 9.875 C-1.12967285 9.12831055 -1.1343457 8.38162109 -1.13916016 7.61230469 C-1.12309394 2.24618788 -1.12309394 2.24618788 0 0 Z " fill="#262625" transform="translate(299,641)"/>
<path d="M0 0 C0.94875 0.04125 1.8975 0.0825 2.875 0.125 C6.49388196 7.04959145 9.7005621 14.13414125 12.84375 21.28295898 C15.40972457 27.11311176 18.08619637 32.878635 20.84375 38.62109375 C21.875 41.125 21.875 41.125 21.875 44.125 C19.235 44.125 16.595 44.125 13.875 44.125 C13.20380451 42.6687455 12.53818193 41.20992133 11.875 39.75 C11.50375 38.93789063 11.1325 38.12578125 10.75 37.2890625 C9.875 35.125 9.875 35.125 9.875 33.125 C3.605 33.455 -2.665 33.785 -9.125 34.125 C-10.775 37.425 -12.425 40.725 -14.125 44.125 C-16.435 44.125 -18.745 44.125 -21.125 44.125 C-20.6059889 38.94145877 -19.38861193 35.08442519 -17.0625 30.4375 C-13.57702321 23.32204685 -10.63026004 16.04649442 -7.79077148 8.65161133 C-7.47180908 7.83200928 -7.15284668 7.01240723 -6.82421875 6.16796875 C-6.54408936 5.43602295 -6.26395996 4.70407715 -5.9753418 3.94995117 C-4.45908087 0.69584539 -3.62049459 0.14481978 0 0 Z M-1.125 12.125 C-1.96264268 14.08149397 -2.79499059 16.04025556 -3.625 18 C-4.0890625 19.09054687 -4.553125 20.18109375 -5.03125 21.3046875 C-6.24552456 23.93161929 -6.24552456 23.93161929 -6.125 26.125 C-1.835 26.125 2.455 26.125 6.875 26.125 C4.895 21.505 2.915 16.885 0.875 12.125 C0.215 12.125 -0.445 12.125 -1.125 12.125 Z " fill="#252423" transform="translate(445.125,640.875)"/>
<path d="M0 0 C0.98381361 2.95144084 1.07006592 4.62869087 0.95703125 7.68359375 C0.49481792 25.13939271 2.9252316 38.47944601 15.25 51.75 C19.68726316 55.890125 24.75021567 58.9970663 30 62 C30.86625 62.51175781 31.7325 63.02351563 32.625 63.55078125 C42.84059951 68.94741492 54.21252514 68.17650281 65.09765625 65.03515625 C88.22014401 56.78823935 101.41387085 38.81571528 111.66796875 17.5390625 C112.81498677 15.03939858 113.93160815 12.53407514 115 10 C116.28195129 13.88365226 115.43039198 15.83884279 113.59985352 19.48193359 C113.23690186 20.16852051 112.8739502 20.85510742 112.5 21.5625 C112.13124756 22.27486816 111.76249512 22.98723633 111.38256836 23.72119141 C102.11024175 41.38940559 90.19421306 56.13900158 72 65 C70.824375 65.5775 69.64875 66.155 68.4375 66.75 C57.52675009 70.71754542 45.49786788 72.46159771 34.71972656 67.43945312 C28.41192109 64.2340881 22.2740429 60.75328657 17 56 C16.18015625 55.27167969 15.3603125 54.54335938 14.515625 53.79296875 C4.61379341 44.49169203 -1.37290885 33.64012338 -2.11206055 19.91992188 C-2.16890791 17.73738027 -2.18557133 15.55825009 -2.1875 13.375 C-2.19974609 12.63765625 -2.21199219 11.9003125 -2.22460938 11.140625 C-2.23580826 6.97463951 -1.87155235 3.74310471 0 0 Z " fill="#E10D1A" transform="translate(419,343)"/>
<path d="M0 0 C0.66 0 1.32 0 2 0 C2 36.3 2 72.6 2 110 C4.64 110 7.28 110 10 110 C10 110.66 10 111.32 10 112 C8.52093108 112.02689216 7.04172517 112.04634621 5.5625 112.0625 C4.32693359 112.07990234 4.32693359 112.07990234 3.06640625 112.09765625 C1 112 1 112 0 111 C-0.09558036 109.55786001 -0.12188394 108.11105921 -0.12025452 106.66575623 C-0.12162918 105.73041046 -0.12300385 104.7950647 -0.12442017 103.83137512 C-0.12082489 102.79703842 -0.11722961 101.76270172 -0.11352539 100.69702148 C-0.11367142 99.61422913 -0.11381744 98.53143677 -0.1139679 97.41583252 C-0.11326823 93.81756626 -0.10547333 90.21935103 -0.09765625 86.62109375 C-0.09579226 84.13387582 -0.09436827 81.64665752 -0.09336853 79.15943909 C-0.0899335 73.26978809 -0.08204277 67.3801561 -0.07201904 61.49051291 C-0.05976246 54.12974626 -0.05437791 46.76897736 -0.04882812 39.40820312 C-0.03808815 26.27212602 -0.02120089 13.13606417 0 0 Z " fill="#191918" transform="translate(562,488)"/>
<path d="M0 0 C1.8368763 0.00212242 1.8368763 0.00212242 3.71086121 0.00428772 C7.57158998 0.0098263 11.4322579 0.02236685 15.29296875 0.03515625 C17.93163978 0.0401792 20.57031173 0.04474071 23.20898438 0.04882812 C29.6328328 0.05977551 36.05664642 0.07645107 42.48046875 0.09765625 C42.48046875 3.09765625 42.48046875 3.09765625 41.1953125 4.640625 C40.60878906 5.18332031 40.02226562 5.72601563 39.41796875 6.28515625 C36.85631899 8.67254412 34.51801533 11.16901558 32.2265625 13.8125 C28.46847339 18.14567926 24.55520061 22.31451787 20.60546875 26.47265625 C15.4285037 31.93905015 10.31399998 37.43381685 5.375 43.1171875 C3.23754808 45.351596 0.92975469 47.21521715 -1.51953125 49.09765625 C-1.51953125 48.10765625 -1.51953125 47.11765625 -1.51953125 46.09765625 C-0.85953125 46.09765625 -0.19953125 46.09765625 0.48046875 46.09765625 C0.48046875 45.43765625 0.48046875 44.77765625 0.48046875 44.09765625 C1.14046875 44.09765625 1.80046875 44.09765625 2.48046875 44.09765625 C2.48046875 43.43765625 2.48046875 42.77765625 2.48046875 42.09765625 C3.14046875 42.09765625 3.80046875 42.09765625 4.48046875 42.09765625 C4.86138672 41.22367188 4.86138672 41.22367188 5.25 40.33203125 C6.61367208 37.85577592 8.12272078 36.29244999 10.16796875 34.34765625 C14.80180232 29.83177481 19.3201558 25.16390689 23.0546875 19.86328125 C23.52519531 19.280625 23.99570313 18.69796875 24.48046875 18.09765625 C25.14046875 18.09765625 25.80046875 18.09765625 26.48046875 18.09765625 C26.74859375 17.45828125 27.01671875 16.81890625 27.29296875 16.16015625 C28.48046875 14.09765625 28.48046875 14.09765625 31.48046875 13.09765625 C31.74859375 12.54078125 32.01671875 11.98390625 32.29296875 11.41015625 C33.48046875 9.09765625 33.48046875 9.09765625 39.48046875 3.09765625 C6.81046875 2.60265625 6.81046875 2.60265625 -26.51953125 2.09765625 C-26.51953125 1.76765625 -26.51953125 1.43765625 -26.51953125 1.09765625 C-17.65906266 0.29214873 -8.89463707 -0.03964966 0 0 Z " fill="#0D0D0C" transform="translate(147.51953125,472.90234375)"/>
<path d="M0 0 C10.97895845 -0.06955363 21.95786435 -0.12283859 32.93699837 -0.15543652 C38.0352266 -0.171083 43.13330392 -0.19230283 48.23144531 -0.22631836 C53.15273392 -0.25894789 58.07387751 -0.27686067 62.99526596 -0.28463173 C64.8715226 -0.29016877 66.74777143 -0.30098128 68.62396622 -0.31719017 C71.25485551 -0.33901221 73.88514784 -0.34196493 76.51611328 -0.34057617 C77.2893544 -0.351362 78.06259552 -0.36214783 78.85926819 -0.3732605 C84.39081285 -0.34172823 88.61910338 0.72430579 92.6796875 4.60546875 C93.78645833 6.0703125 94.89322917 7.53515625 96 9 C95.34 9.66 94.68 10.32 94 11 C93.62875 10.236875 93.2575 9.47375 92.875 8.6875 C90.53127829 5.32816555 88.79833888 4.51501845 85 3 C82.12981396 2.70734581 79.47487253 2.56224091 76.60791016 2.56762695 C75.37764603 2.55233948 75.37764603 2.55233948 74.12252808 2.53674316 C71.42796932 2.50669543 68.73376655 2.49735989 66.0390625 2.48828125 C64.16432522 2.47142846 62.28959919 2.4532774 60.41488647 2.43388367 C55.49289467 2.38644277 50.57094853 2.35659516 45.64880371 2.33044434 C40.62124619 2.30060901 35.59384587 2.25408887 30.56640625 2.20898438 C20.71101983 2.12301849 10.85560101 2.05564331 1 2 C0.67 1.34 0.34 0.68 0 0 Z " fill="#161515" transform="translate(414,473)"/>
<path d="M0 0 C0 0.66 0 1.32 0 2 C-0.72703125 2.29132813 -1.4540625 2.58265625 -2.203125 2.8828125 C-17.41648062 9.08518056 -30.88407635 16.46630819 -43.4375 27.125 C-44.01677246 27.61564941 -44.59604492 28.10629883 -45.19287109 28.61181641 C-47.98471723 31.03813134 -50.46845373 33.47872111 -52.78515625 36.3671875 C-53.51605469 37.23601562 -54.24695313 38.10484375 -55 39 C-55.66 39 -56.32 39 -57 39 C-57 39.66 -57 40.32 -57 41 C-57.66 41 -58.32 41 -59 41 C-59.4640625 42.175625 -59.4640625 42.175625 -59.9375 43.375 C-61 46 -61 46 -62 48 C-62.66 48 -63.32 48 -64 48 C-64.66 49.98 -65.32 51.96 -66 54 C-66.66 54 -67.32 54 -68 54 C-68.26941406 54.86753906 -68.53882813 55.73507812 -68.81640625 56.62890625 C-69.96735937 59.90703344 -71.34479123 62.85339981 -72.9375 65.9375 C-75.12884277 70.23981845 -77.1723531 74.53241869 -79 79 C-80 77 -80 77 -79.03125 73.9453125 C-78.53221553 72.66737164 -78.02093836 71.3941696 -77.5 70.125 C-77.08995728 69.11723511 -77.08995728 69.11723511 -76.67163086 68.08911133 C-72.520844 58.17301656 -66.92455655 48.25831018 -60 40 C-59.34 40 -58.68 40 -58 40 C-57.77441406 39.4534375 -57.54882812 38.906875 -57.31640625 38.34375 C-48.85829708 23.28480192 -17.89196599 0 0 0 Z " fill="#E10C19" transform="translate(484,249)"/>
<path d="M0 0 C0.66 0 1.32 0 2 0 C2.34198683 3.43669474 2.67193341 6.87445076 3 10.3125 C3.14308594 11.74819336 3.14308594 11.74819336 3.2890625 13.21289062 C4.23738466 23.27187921 4.16281593 32.97071258 3 43 C4.96259766 43.18175781 4.96259766 43.18175781 6.96484375 43.3671875 C11.63628413 43.89100207 16.04300005 44.85169496 20.5625 46.125 C21.33118408 46.34019287 22.09986816 46.55538574 22.8918457 46.77709961 C33.52337142 49.88209364 43.45615514 54.4011077 53 60 C53.28875 59.05125 53.5775 58.1025 53.875 57.125 C55 54 55 54 57 52 C56.43125124 55.98124131 55.12345246 58.61272328 53 62 C52.47269287 61.75354736 51.94538574 61.50709473 51.40209961 61.25317383 C36.54411267 54.34416959 22.17715662 48.43978739 5.94921875 45.67578125 C3 45 3 45 1 43 C0.78881836 40.65600586 0.78881836 40.65600586 0.83984375 37.71484375 C0.85144531 36.63380371 0.86304688 35.55276367 0.875 34.43896484 C0.895625 33.28348145 0.91625 32.12799805 0.9375 30.9375 C1.04041721 20.57287918 0.80581882 10.33174839 0 0 Z " fill="#E2101E" transform="translate(310,198)"/>
<path d="M0 0 C1.485 0.495 1.485 0.495 3 1 C3.02464705 6.67830078 3.04283462 12.35657069 3.05493164 18.03491211 C3.05997256 19.96818585 3.06680519 21.90145576 3.07543945 23.8347168 C3.08751565 26.60726872 3.09323057 29.37977041 3.09765625 32.15234375 C3.10281754 33.02213364 3.10797882 33.89192352 3.11329651 34.78807068 C3.11349185 36.85905814 3.06208168 38.92994324 3 41 C2.67 41.33 2.34 41.66 2 42 C-0.31 42 -2.62 42 -5 42 C-5.33 36.06 -5.66 30.12 -6 24 C-8.20429687 24.03480469 -8.20429687 24.03480469 -10.453125 24.0703125 C-12.38541159 24.08907256 -14.31770367 24.10727251 -16.25 24.125 C-17.70212891 24.15013672 -17.70212891 24.15013672 -19.18359375 24.17578125 C-20.58544922 24.18544922 -20.58544922 24.18544922 -22.015625 24.1953125 C-22.87446289 24.20578613 -23.73330078 24.21625977 -24.61816406 24.22705078 C-27.17903596 23.98293323 -28.79511029 23.28990512 -31 22 C-26.52084672 21.97113662 -22.04171709 21.95324813 -17.5625 21.9375 C-16.28310547 21.92912109 -15.00371094 21.92074219 -13.68554688 21.91210938 C-11.86313477 21.90727539 -11.86313477 21.90727539 -10.00390625 21.90234375 C-8.87799072 21.89710693 -7.7520752 21.89187012 -6.59204102 21.88647461 C-4 22 -4 22 -3 23 C-2.92674832 25.86267567 -2.90761795 28.700719 -2.9375 31.5625 C-2.94201172 32.36880859 -2.94652344 33.17511719 -2.95117188 34.00585938 C-2.96299482 36.00393756 -2.98093086 38.00197783 -3 40 C-2.01 40 -1.02 40 0 40 C0 26.8 0 13.6 0 0 Z " fill="#151514" transform="translate(585,643)"/>
<path d="M0 0 C7.51760761 -0.39583307 15.03412682 -0.69686066 22.55981255 -0.88080692 C26.05633891 -0.96917187 29.54569304 -1.08861439 33.03808594 -1.2824707 C55.52719805 -2.49854363 55.52719805 -2.49854363 61.21490479 1.59353638 C64.67214933 5.50117414 66.58047865 9.86143545 68.21414185 14.7716217 C69.48870962 18.38578433 71.33244187 21.68493551 73.125 25.0625 C74.08969691 27.03857271 75.05068282 29.01649291 76 31 C75.34 31.33 74.68 31.66 74 32 C73.67 30.35 73.34 28.7 73 27 C72.34 27 71.68 27 71 27 C70.01246936 25.27559635 69.03531194 23.54524974 68.0625 21.8125 C67.51722656 20.84957031 66.97195313 19.88664063 66.41015625 18.89453125 C65.09420667 16.19337158 64.42698113 13.95643899 64 11 C63.34 11 62.68 11 62 11 C60.68 8.36 59.36 5.72 58 3 C57.31761765 2.99191315 56.63523529 2.98382629 55.93217468 2.97549438 C48.8433436 2.8895772 41.75479631 2.79007931 34.66625977 2.68261719 C32.01917275 2.64428421 29.37203287 2.60943906 26.72485352 2.578125 C22.92444944 2.53256855 19.12441068 2.47455803 15.32421875 2.4140625 C14.13664474 2.40251129 12.94907074 2.39096008 11.72550964 2.37905884 C10.62459488 2.35918915 9.52368011 2.33931946 8.3894043 2.31884766 C7.41899704 2.30552399 6.44858978 2.29220032 5.44877625 2.2784729 C3 2 3 2 0 0 Z " fill="#0F0F0F" transform="translate(413,535)"/>
<path d="M0 0 C0.99 0.99 0.99 0.99 2 2 C0.54550599 3.0055761 -0.91372443 4.00430435 -2.375 5 C-3.18710937 5.556875 -3.99921875 6.11375 -4.8359375 6.6875 C-7 8 -7 8 -9 8 C-9 8.66 -9 9.32 -9 10 C-11.11420846 11.64505267 -13.23020636 13.17669889 -15.4375 14.6875 C-16.73141722 15.59239529 -18.02438647 16.49864759 -19.31640625 17.40625 C-19.94949707 17.8496875 -20.58258789 18.293125 -21.23486328 18.75 C-27.26468766 23.0200831 -32.88205561 27.66735659 -38.2734375 32.71484375 C-40 34 -40 34 -43 34 C-43 33.34 -43 32.68 -43 32 C-43.56460938 31.74605469 -44.12921875 31.49210937 -44.7109375 31.23046875 C-47.29825174 29.83967697 -49.36380655 28.18700727 -51.625 26.3125 C-61.24909828 18.50955568 -71.68165484 11.83762339 -82 5 C-81.67 4.34 -81.34 3.68 -81 3 C-59.67360882 16.9554629 -59.67360882 16.9554629 -49.69140625 24.9140625 C-46.87148612 27.09960292 -43.98866636 29.05450585 -41 31 C-40.05382812 30.21238281 -39.10765625 29.42476562 -38.1328125 28.61328125 C-28.05819255 20.29273035 -17.65973809 12.55075585 -7 5 C-4.66536804 3.33514399 -2.33271652 1.6675398 0 0 Z " fill="#E20F1A" transform="translate(456,158)"/>
<path d="M0 0 C0.99 0.495 0.99 0.495 2 1 C1.43152344 1.556875 0.86304688 2.11375 0.27734375 2.6875 C-8.17293241 10.99715633 -8.17293241 10.99715633 -15.5703125 20.23046875 C-16.04210937 20.81441406 -16.51390625 21.39835937 -17 22 C-17.66 22 -18.32 22 -19 22 C-19 22.66 -19 23.32 -19 24 C-19.66 24 -20.32 24 -21 24 C-21 24.66 -21 25.32 -21 26 C-21.66 26 -22.32 26 -23 26 C-23 26.66 -23 27.32 -23 28 C-23.66 28 -24.32 28 -25 28 C-25.40206665 28.88534424 -25.40206665 28.88534424 -25.81225586 29.78857422 C-27.00948994 32.01766904 -28.26251195 33.55874782 -30.00390625 35.3828125 C-30.57947266 35.99253906 -31.15503906 36.60226562 -31.74804688 37.23046875 C-32.34681641 37.85566406 -32.94558594 38.48085938 -33.5625 39.125 C-34.75332327 40.37568283 -35.94222111 41.62820262 -37.12890625 42.8828125 C-37.65556885 43.43340332 -38.18223145 43.98399414 -38.72485352 44.55126953 C-40.10237804 45.99204489 -40.10237804 45.99204489 -41 48 C-41.66 48 -42.32 48 -43 48 C-43 48.66 -43 49.32 -43 50 C-43.66 50 -44.32 50 -45 50 C-45 50.66 -45 51.32 -45 52 C-46.375 53.625 -46.375 53.625 -48 55 C-48.66 55 -49.32 55 -50 55 C-50.24878906 55.5775 -50.49757812 56.155 -50.75390625 56.75 C-52.17603049 59.31784817 -53.81623509 60.97749044 -55.9375 63 C-58.04313532 65.01511268 -59.91791777 66.88662023 -61.62890625 69.25 C-62.08136719 69.8275 -62.53382813 70.405 -63 71 C-63.66 71 -64.32 71 -65 71 C-63.5158627 67.51345524 -61.53785948 65.35808928 -58.8125 62.75 C-55.275235 59.35521678 -52.04339464 55.7933476 -48.83618164 52.09228516 C-45.90871236 48.75650378 -42.86064823 45.53770238 -39.8125 42.3125 C-38.48657708 40.90402425 -37.16106119 39.49516522 -35.8359375 38.0859375 C-34.86092285 37.04904785 -34.86092285 37.04904785 -33.86621094 35.99121094 C-30.72584339 32.64049957 -27.61563238 29.26227921 -24.50708008 25.88208008 C-21.780258 22.91994148 -19.04015227 19.97113225 -16.28515625 17.03515625 C-15.65552979 16.36363525 -15.02590332 15.69211426 -14.37719727 15.00024414 C-13.15918809 13.70239668 -11.9397102 12.40592542 -10.71850586 11.11108398 C-8.27712502 8.50861653 -5.9389266 5.92303079 -3.71875 3.125 C-2 1 -2 1 0 0 Z " fill="#131211" transform="translate(198,485)"/>
<path d="M0 0 C2.88431342 2.73349965 5.12666402 5.49983687 7.3125 8.8125 C16.07951526 21.41047991 29.26907794 30.64737284 44.1953125 34.578125 C48.23735557 35.18612034 52.23012266 35.22458442 56.3125 35.25 C57.12912109 35.270625 57.94574219 35.29125 58.78710938 35.3125 C66.04453699 35.35876249 72.37025311 33.92602853 78 29 C78.66 29.33 79.32 29.66 80 30 C71.51065239 37.66779784 63.1020564 38.94851036 52 38.51171875 C40.31636344 37.61419481 27.98027811 32.52558943 19 25 C19 24.34 19 23.68 19 23 C18.44570313 22.76796875 17.89140625 22.5359375 17.3203125 22.296875 C14.37887128 20.65283715 12.27451458 18.61370093 9.875 16.25 C9.00617188 15.40953125 8.13734375 14.5690625 7.2421875 13.703125 C4.87387141 10.84794254 3.92716668 8.56282028 3 5 C2.34 5 1.68 5 1 5 C0.67 3.35 0.34 1.7 0 0 Z " fill="#E10E1A" transform="translate(306,380)"/>
<path d="M0 0 C0.33 0 0.66 0 1 0 C0.99476318 0.96188232 0.98952637 1.92376465 0.98413086 2.91479492 C0.96577533 6.54727211 0.95445857 10.17974537 0.94506836 13.81225586 C0.94009693 15.37248427 0.93331743 16.93270817 0.92456055 18.49291992 C0.87230315 28.05602403 1.06963079 37.47289338 2 47 C-3.6476815 48.64724044 -9.32609706 50.09911959 -15.0390625 51.5 C-19.38934097 52.57497229 -23.6979739 53.74524239 -28 55 C-28.33 54.34 -28.66 53.68 -29 53 C-7.22519084 46 -7.22519084 46 0 46 C-0.144375 45.4121875 -0.28875 44.824375 -0.4375 44.21875 C-1.98131437 36.75698054 -2.22202997 29.47818618 -2.25 21.875 C-2.25902344 20.86244141 -2.26804687 19.84988281 -2.27734375 18.80664062 C-2.25199883 12.31411576 -1.52839608 6.31029134 0 0 Z " fill="#E0111E" transform="translate(514,195)"/>
<path d="M0 0 C0 0.66 0 1.32 0 2 C-1.40467323 3.16485097 -2.81310987 4.32540758 -4.23828125 5.46508789 C-6.10009621 7.08720965 -7.64985994 8.80385677 -9.25 10.68359375 C-12.26890451 14.18072082 -15.37141068 17.57639499 -18.54443359 20.93383789 C-19.84112556 22.3062845 -21.13152587 23.68469513 -22.41650391 25.06811523 C-25.11714108 27.97403847 -27.79930813 30.81461269 -30.71484375 33.5078125 C-35.41765253 37.98100855 -36.65361561 41.61390236 -37 48.0625 C-37.03637701 50.37471387 -37.04873753 52.68801365 -37 55 C-37.66 55 -38.32 55 -39 55 C-40.07104664 41.94343141 -40.07104664 41.94343141 -37.546875 37.36328125 C-35.79143562 35.42713487 -33.95570563 33.72956408 -32 32 C-31.20529297 30.90751953 -31.20529297 30.90751953 -30.39453125 29.79296875 C-29.93433594 29.20128906 -29.47414063 28.60960937 -29 28 C-28.34 28 -27.68 28 -27 28 C-26.6596875 27.195625 -26.6596875 27.195625 -26.3125 26.375 C-23.49552878 21.2776235 -19.266984 16.92101233 -15 13 C-14.34 13 -13.68 13 -13 13 C-12.75121094 12.43796875 -12.50242187 11.8759375 -12.24609375 11.296875 C-10.79540675 8.62288141 -9.0681815 6.53580462 -7.0625 4.25 C-6.37285156 3.45078125 -5.68320313 2.6515625 -4.97265625 1.828125 C-3 0 -3 0 0 0 Z " fill="#191818" transform="translate(126,544)"/>
<path d="M0 0 C1.32 0.33 2.64 0.66 4 1 C4.65234375 2.7890625 4.65234375 2.7890625 5 5 C2.25796713 10.0251481 -2.67035387 13.34142217 -7.23828125 16.578125 C-9.47954541 18.38703886 -10.66348446 20.47547065 -12 23 C-12.66 23 -13.32 23 -14 23 C-14.24878906 23.67546875 -14.49757813 24.3509375 -14.75390625 25.046875 C-16.24690879 28.58515062 -18.0830154 31.89380213 -19.9375 35.25 C-22.89408203 40.71403795 -25.44264683 45.9574697 -27 52 C-27.27585937 53.05960937 -27.55171875 54.11921875 -27.8359375 55.2109375 C-28.57910397 58.13587709 -29.29966577 61.06455653 -30 64 C-30.66 64 -31.32 64 -32 64 C-29.67900623 44.66661575 -19.9089819 23.9116566 -4.83203125 11.421875 C-3.24382585 10.18923797 -1.62443487 8.99698376 0 7.8125 C0.66 7.214375 1.32 6.61625 2 6 C2 4.68 2 3.36 2 2 C1.34 1.34 0.68 0.68 0 0 Z " fill="#E10D1B" transform="translate(576,260)"/>
<path d="M0 0 C0.99 0 1.98 0 3 0 C3.05821935 3.89577024 3.0936703 7.79142802 3.125 11.6875 C3.14175781 12.79029297 3.15851563 13.89308594 3.17578125 15.02929688 C3.18222656 16.09599609 3.18867188 17.16269531 3.1953125 18.26171875 C3.20578613 19.24100342 3.21625977 20.22028809 3.22705078 21.22924805 C2.98597685 24.17112772 2.23055542 26.33237726 1 29 C0.67 29 0.34 29 0 29 C-0.33 21.08 -0.66 13.16 -1 5 C-3.97 9.455 -3.97 9.455 -7 14 C-7.66 14 -8.32 14 -9 14 C-9 14.66 -9 15.32 -9 16 C-10.65 16 -12.3 16 -14 16 C-14 15.01 -14 14.02 -14 13 C-13.26265625 12.9484375 -12.5253125 12.896875 -11.765625 12.84375 C-7.96055339 11.6828807 -6.94977479 9.75768175 -4.75 6.5 C-4.06421875 5.4996875 -3.3784375 4.499375 -2.671875 3.46875 C-2.12015625 2.6540625 -1.5684375 1.839375 -1 1 C-0.67 0.67 -0.34 0.34 0 0 Z " fill="#141312" transform="translate(394,652)"/>
<path d="M0 0 C0.33 0 0.66 0 1 0 C1.21425995 3.80311403 0.71377593 6.11754751 -1 9.5 C-3.65861306 15.05891822 -5.84475738 20.73328344 -8 26.5 C-10.46598618 33.07807873 -13.02978314 39.53582934 -16.03515625 45.890625 C-17.24225845 48.52963385 -18.17347163 51.21985912 -19 54 C-19.66 53.67 -20.32 53.34 -21 53 C-18.9404341 46.55021072 -16.58009422 40.27170599 -14.0234375 34.00390625 C-13.65272125 33.08915024 -13.282005 32.17439423 -12.90005493 31.23191833 C-12.12314223 29.31627698 -11.34491689 27.40116749 -10.56542969 25.48657227 C-9.36890601 22.54753124 -8.17629832 19.60692495 -6.984375 16.66601562 C-6.22678673 14.79938814 -5.46898204 12.93284848 -4.7109375 11.06640625 C-4.3536557 10.18626358 -3.9963739 9.30612091 -3.62826538 8.39930725 C-3.2976712 7.58763596 -2.96707703 6.77596466 -2.62646484 5.93969727 C-2.3357309 5.22515884 -2.04499695 4.51062042 -1.74545288 3.77442932 C-1.20856933 2.49646536 -0.619909 1.239818 0 0 Z " fill="#161615" transform="translate(295,481)"/>
<path d="M0 0 C3.0033329 2.83795113 5.30902617 5.77267051 7.625 9.1875 C17.27384073 22.49441771 30.69476886 30.58010746 46 36 C45.505 36.99 45.505 36.99 45 38 C37.04199322 35.707015 30.18082279 32.05100513 23 28 C23 27.34 23 26.68 23 26 C22.29746094 25.7834375 21.59492188 25.566875 20.87109375 25.34375 C17.28474232 23.66523994 14.79886426 21.28948909 12.0625 18.5 C11.53688477 17.96971191 11.01126953 17.43942383 10.46972656 16.89306641 C0 6.02415312 0 6.02415312 0 0 Z " fill="#E2131E" transform="translate(379,374)"/>
<path d="M0 0 C0.495 1.485 0.495 1.485 1 3 C0.28972656 3.69867188 -0.42054688 4.39734375 -1.15234375 5.1171875 C-2.07144531 6.02726563 -2.99054688 6.93734375 -3.9375 7.875 C-4.85402344 8.77992188 -5.77054687 9.68484375 -6.71484375 10.6171875 C-9.01187627 12.77682255 -9.01187627 12.77682255 -10 15 C-10.66 15 -11.32 15 -12 15 C-12.25136719 15.72703125 -12.50273437 16.4540625 -12.76171875 17.203125 C-14.09606545 20.21698063 -15.67601869 22.24994921 -17.8125 24.75 C-21.5107633 29.23641778 -24.3940597 33.81317652 -27 39 C-27.66 39 -28.32 39 -29 39 C-29.103125 39.7425 -29.20625 40.485 -29.3125 41.25 C-30.04253504 44.17014018 -31.06789398 45.73187554 -33 48 C-33 38.61283016 -24.40204625 28.90021144 -18.9375 21.5625 C-18.45571289 20.91313477 -17.97392578 20.26376953 -17.47753906 19.59472656 C-14.43724493 15.60446848 -11.15880923 12.04307657 -7.56811523 8.54223633 C-5.79401624 6.79741563 -4.15900666 4.97052015 -2.5625 3.0625 C-1.716875 2.051875 -0.87125 1.04125 0 0 Z " fill="#E20E1A" transform="translate(401,202)"/>
<path d="M0 0 C0.66 0 1.32 0 2 0 C2 14.52 2 29.04 2 44 C-0.31 44 -2.62 44 -5 44 C-5.33 43.34 -5.66 42.68 -6 42 C-4.02 42 -2.04 42 0 42 C0 28.14 0 14.28 0 0 Z " fill="#171514" transform="translate(400,641)"/>
<path d="M0 0 C0.66 0.99 1.32 1.98 2 3 C1.1015625 5.69921875 1.1015625 5.69921875 -0.375 8.6875 C-1.09816406 10.17830078 -1.09816406 10.17830078 -1.8359375 11.69921875 C-2.41214844 12.83810547 -2.41214844 12.83810547 -3 14 C-3.66 14 -4.32 14 -5 14 C-5.20625 14.556875 -5.4125 15.11375 -5.625 15.6875 C-9.67561314 22.49989483 -16.61897174 25.1163534 -24 27 C-28.78183597 27.53049644 -33.33232632 27.20456095 -38 26 C-38 25.67 -38 25.34 -38 25 C-36.19015625 24.85304688 -36.19015625 24.85304688 -34.34375 24.703125 C-32.72908825 24.55292391 -31.11450895 24.4018347 -29.5 24.25 C-28.70851563 24.188125 -27.91703125 24.12625 -27.1015625 24.0625 C-21.30164734 23.49201654 -17.03875966 21.86256022 -12 19 C-11.28521484 18.66258789 -10.57042969 18.32517578 -9.83398438 17.97753906 C-7.39875028 16.67952557 -7.09194215 15.52511623 -6 13 C-5.34 11.88625 -4.68 10.7725 -4 9.625 C-2.20635438 6.52627641 -1.00864534 3.44620491 0 0 Z " fill="#151414" transform="translate(525,510)"/>
<path d="M0 0 C0.99 0 1.98 0 3 0 C3.37125 0.886875 3.7425 1.77375 4.125 2.6875 C6.75548585 7.33469167 9.81984269 10.2732809 15 12 C20.47033097 12.42079469 24.1775321 11.63870885 29 9 C31.31607874 6.54366927 31.31607874 6.54366927 33 4 C33.66 3.34 34.32 2.68 35 2 C35.495 2.99 35.495 2.99 36 4 C32.40917671 9.53749673 29.63680615 13.20018816 23 15 C16.41842281 15.92352504 12.38749469 14.83340968 7 11 C3.03569327 7.6523632 1.28706246 5.03124415 0 0 Z " fill="#1B1A19" transform="translate(299,671)"/>
<path d="M0 0 C1.2065625 0.0309375 1.2065625 0.0309375 2.4375 0.0625 C2.4375 0.7225 2.4375 1.3825 2.4375 2.0625 C1.1175 2.0625 -0.2025 2.0625 -1.5625 2.0625 C-1.5625 15.2625 -1.5625 28.4625 -1.5625 42.0625 C-2.5525 42.5575 -2.5525 42.5575 -3.5625 43.0625 C-3.58714574 37.09936834 -3.605334 31.13626605 -3.61743164 25.1730957 C-3.62247278 23.14281702 -3.62930557 21.11254198 -3.63793945 19.08227539 C-3.65001467 16.17072653 -3.65573034 13.2592255 -3.66015625 10.34765625 C-3.66531754 9.4341188 -3.67047882 8.52058136 -3.67579651 7.57936096 C-3.67599168 5.40674573 -3.62461805 3.23422704 -3.5625 1.0625 C-2.5625 0.0625 -2.5625 0.0625 0 0 Z " fill="#333331" transform="translate(365.5625,640.9375)"/>
<path d="M0 0 C0.99 0.33 1.98 0.66 3 1 C3 14.2 3 27.4 3 41 C0.525 41.495 0.525 41.495 -2 42 C-1.34 41.34 -0.68 40.68 0 40 C0.17546482 36.98691049 0.23127445 34.06689546 0.1953125 31.0546875 C0.1924826 30.1696756 0.18965271 29.2846637 0.18673706 28.37283325 C0.1755224 25.54008588 0.1504157 22.70765216 0.125 19.875 C0.11497185 17.95703581 0.10584572 16.03906667 0.09765625 14.12109375 C0.07557889 9.41394124 0.04104045 4.70702384 0 0 Z " fill="#1D1D1C" transform="translate(585,643)"/>
<path d="M0 0 C0.99 0.33 1.98 0.66 3 1 C2.39414062 1.62003906 1.78828125 2.24007812 1.1640625 2.87890625 C-9.60910176 14.26531217 -17.45763917 27.32683749 -25 41 C-26 38 -26 38 -24.78515625 35.08203125 C-24.21667969 34.00308594 -23.64820313 32.92414063 -23.0625 31.8125 C-22.49660156 30.72582031 -21.93070312 29.63914063 -21.34765625 28.51953125 C-20.90292969 27.68808594 -20.45820313 26.85664063 -20 26 C-19.34 26 -18.68 26 -18 26 C-17.34 24.02 -16.68 22.04 -16 20 C-15.34 20 -14.68 20 -14 20 C-13.690625 19.21625 -13.38125 18.4325 -13.0625 17.625 C-12 15 -12 15 -11 13 C-10.34 13 -9.68 13 -9 13 C-8.773125 12.29875 -8.54625 11.5975 -8.3125 10.875 C-6.66158712 7.25871465 -4.7091165 4.91230024 -2 2 C-1.34 2 -0.68 2 0 2 C0 1.34 0 0.68 0 0 Z " fill="#E31420" transform="translate(407,221)"/>
<path d="M0 0 C0.66 0 1.32 0 2 0 C0.61122646 3.35620271 -0.91677965 5.07298728 -4 7 C-4.66 7 -5.32 7 -6 7 C-6 7.66 -6 8.32 -6 9 C-7.06380389 9.96321498 -8.1795922 10.86910175 -9.3125 11.75 C-17.89718384 19.05156383 -25.14146415 28.85344448 -30 39 C-30.61572266 37.21459961 -30.61572266 37.21459961 -31 35 C-29.56367857 32.33644191 -28.11765581 30.0138106 -26.375 27.5625 C-25.88588135 26.86253906 -25.3967627 26.16257812 -24.89282227 25.44140625 C-19.71061013 18.24610715 -13.72287597 11.7822674 -7 6 C-6.34 6 -5.68 6 -5 6 C-5 5.34 -5 4.68 -5 4 C-3.35 3.34 -1.7 2.68 0 2 C0 1.34 0 0.68 0 0 Z " fill="#E3131D" transform="translate(458,281)"/>
<path d="M0 0 C4.52631831 0.58073518 8.00661734 2.4642086 11.875 4.75 C12.80372925 5.28862671 12.80372925 5.28862671 13.7512207 5.83813477 C18.02158321 8.34300178 22.01301997 11.07621465 26 14 C26.99 14.33 27.98 14.66 29 15 C29 15.66 29 16.32 29 17 C29.886875 17.2475 30.77375 17.495 31.6875 17.75 C35.10427135 19.03934768 37.2797748 20.59980129 40 23 C39.67 23.66 39.34 24.32 39 25 C37.97003906 24.32195312 36.94007813 23.64390625 35.87890625 22.9453125 C26.92370636 17.08264729 17.867527 11.46525145 8.609375 6.09375 C7.98998047 5.73410156 7.37058594 5.37445313 6.73242188 5.00390625 C5.16169255 4.09369783 3.58878176 3.18725651 2.015625 2.28125 C1.35046875 1.8584375 0.6853125 1.435625 0 1 C0 0.67 0 0.34 0 0 Z " fill="#E31420" transform="translate(345,166)"/>
<path d="M0 0 C0.66 0 1.32 0 2 0 C7.47307611 11.84553547 12.62110224 23.70474196 17 36 C16.01 36.495 16.01 36.495 15 37 C13.24713147 33.04293096 11.49823899 29.0841163 9.75 25.125 C9.25886719 24.01640625 8.76773437 22.9078125 8.26171875 21.765625 C0 3.0390625 0 3.0390625 0 0 Z " fill="#191918" transform="translate(318,482)"/>
<path d="M0 0 C2.81544125 3.35432411 4.30340419 6.82783827 5.91796875 10.8828125 C6.18007645 11.53829071 6.44218414 12.19376892 6.7122345 12.86911011 C7.26212869 14.24802009 7.80908948 15.6281031 8.35327148 17.00927734 C9.18854039 19.12763858 10.03394531 21.24173998 10.88085938 23.35546875 C15 33.71273434 15 33.71273434 15 36 C14.01 35.67 13.02 35.34 12 35 C10.90427649 32.37146109 9.98487951 29.83010341 9.125 27.125 C7.38687242 21.89476141 5.58477387 16.85021186 3.1875 11.875 C1.25888013 7.82613456 0.297929 4.46893497 0 0 Z " fill="#151514" transform="translate(313,500)"/>
<path d="M0 0 C0.33 0.99 0.66 1.98 1 3 C-2.3 6.3 -5.6 9.6 -9 13 C-7.12976023 17.67559943 -5.27534504 20.36410457 -2.14453125 24.1328125 C-1.76683594 24.74898437 -1.38914062 25.36515625 -1 26 C-1.33 26.99 -1.66 27.98 -2 29 C-5.63 24.05 -9.26 19.1 -13 14 C-6.25 6.125 -6.25 6.125 -3.125 3.0625 C-2.23167969 2.18271484 -2.23167969 2.18271484 -1.3203125 1.28515625 C-0.66675781 0.64900391 -0.66675781 0.64900391 0 0 Z " fill="#171413" transform="translate(271,646)"/>
<path d="M0 0 C0.33 0 0.66 0 1 0 C0.48666244 7.0943251 -2.22740723 13.26852071 -4.875 19.8125 C-5.32230469 20.95654297 -5.76960938 22.10058594 -6.23046875 23.27929688 C-6.66746094 24.36919922 -7.10445312 25.45910156 -7.5546875 26.58203125 C-8.14999268 28.07053589 -8.14999268 28.07053589 -8.75732422 29.58911133 C-10 32 -10 32 -13 34 C-12.32648095 29.76695021 -10.92947649 26.11569646 -9.27734375 22.16796875 C-9.01240616 21.53135818 -8.74746857 20.89474762 -8.47450256 20.23884583 C-7.63312896 18.21990579 -6.78542409 16.20369644 -5.9375 14.1875 C-5.36351111 12.81332689 -4.78993893 11.43897965 -4.21679688 10.06445312 C-2.81601516 6.70760648 -1.40954545 3.35317771 0 0 Z " fill="#161515" transform="translate(262,562)"/>
<path d="M0 0 C0 3.90371341 -1.11501091 4.56247618 -3.75 7.375 C-4.56339844 8.25027344 -5.37679687 9.12554687 -6.21484375 10.02734375 C-6.66069824 10.50155762 -7.10655273 10.97577148 -7.56591797 11.46435547 C-9.10243816 13.10969289 -10.61700097 14.77343332 -12.12890625 16.44140625 C-13.18990546 17.60695175 -14.25110112 18.77231845 -15.3125 19.9375 C-15.81555664 20.4929248 -16.31861328 21.04834961 -16.83691406 21.62060547 C-19.38183778 24.3921785 -21.88571167 26.87695784 -25 29 C-25 28.01 -25 27.02 -25 26 C-24.34 26 -23.68 26 -23 26 C-23 25.34 -23 24.68 -23 24 C-22.34 24 -21.68 24 -21 24 C-21 23.34 -21 22.68 -21 22 C-20.34 22 -19.68 22 -19 22 C-18.61908203 21.12601563 -18.61908203 21.12601563 -18.23046875 20.234375 C-16.86679667 17.75811967 -15.35774797 16.19479374 -13.3125 14.25 C-9.83243503 10.86501877 -6.60262588 7.3500423 -3.4453125 3.6640625 C-2.34597202 2.39833536 -1.1854566 1.1854566 0 0 Z " fill="#1C1A19" transform="translate(171,493)"/>
<path d="M0 0 C2.31 0 4.62 0 7 0 C7.33 1.32 7.66 2.64 8 4 C7.67 3.34 7.34 2.68 7 2 C5.35 2 3.7 2 2 2 C2.01047363 2.64549805 2.02094727 3.29099609 2.03173828 3.95605469 C2.07337272 6.88733002 2.09934975 9.81854304 2.125 12.75 C2.14175781 13.76578125 2.15851563 14.7815625 2.17578125 15.828125 C2.18222656 16.8078125 2.18867188 17.7875 2.1953125 18.796875 C2.20578613 19.69760742 2.21625977 20.59833984 2.22705078 21.52636719 C2 24 2 24 0 28 C0 18.76 0 9.52 0 0 Z " fill="#393838" transform="translate(329,641)"/>
<path d="M0 0 C0.66 0.33 1.32 0.66 2 1 C0.40014695 5.04338736 -1.20564296 9.08439149 -2.8125 13.125 C-3.26431641 14.26710938 -3.71613281 15.40921875 -4.18164062 16.5859375 C-4.62314453 17.69453125 -5.06464844 18.803125 -5.51953125 19.9453125 C-5.92276611 20.96125488 -6.32600098 21.97719727 -6.74145508 23.02392578 C-8.03715593 26.08786243 -9.48183251 29.04082728 -11 32 C-11.66 31.67 -12.32 31.34 -13 31 C-9.53656713 20.31058672 -4.76751701 10.15759637 0 0 Z " fill="#1C1C1B" transform="translate(276,495)"/>
<path d="M0 0 C0 3.52032428 -0.70351351 4.4385343 -3 7 C-3.66 7 -4.32 7 -5 7 C-5 7.66 -5 8.32 -5 9 C-5.66 9 -6.32 9 -7 9 C-7 9.66 -7 10.32 -7 11 C-7.66 11 -8.32 11 -9 11 C-9.2578125 11.57234375 -9.515625 12.1446875 -9.78125 12.734375 C-11.11365942 15.21128995 -12.65056118 17.1341166 -14.5 19.25 C-15.1084375 19.95640625 -15.716875 20.6628125 -16.34375 21.390625 C-18 23 -18 23 -20 23 C-20 23.66 -20 24.32 -20 25 C-22.5 26.625 -22.5 26.625 -25 28 C-23.5158627 24.51345524 -21.53785948 22.35808928 -18.8125 19.75 C-15.25383938 16.27674723 -11.94182473 12.70235063 -8.70703125 8.9296875 C-5.94778419 5.81053864 -2.98412025 2.90248778 0 0 Z " fill="#0F0F0E" transform="translate(131,557)"/>
<path d="M0 0 C0.74362793 0.01047363 1.48725586 0.02094727 2.25341797 0.03173828 C3.46191406 0.04140625 3.46191406 0.04140625 4.69482422 0.05126953 C5.95746094 0.07640625 5.95746094 0.07640625 7.24560547 0.10205078 C8.51984375 0.11558594 8.51984375 0.11558594 9.81982422 0.12939453 C11.9202043 0.15299431 14.02043991 0.18886595 16.12060547 0.22705078 C16.12060547 0.88705078 16.12060547 1.54705078 16.12060547 2.22705078 C7.70560547 2.72205078 7.70560547 2.72205078 -0.87939453 3.22705078 C-2.85939453 7.68205078 -2.85939453 7.68205078 -4.87939453 12.22705078 C-5.53939453 12.22705078 -6.19939453 12.22705078 -6.87939453 12.22705078 C-6.4290533 10.59981779 -5.96884099 8.97531414 -5.50439453 7.35205078 C-5.24916016 6.44712891 -4.99392578 5.54220703 -4.73095703 4.60986328 C-3.74861644 1.8611121 -3.04098422 0.36738313 0 0 Z " fill="#1C1B1A" transform="translate(293.87939453125,457.77294921875)"/>
<path d="M0 0 C3 1 3 1 4.17578125 2.8203125 C4.55089844 3.58085937 4.92601562 4.34140625 5.3125 5.125 C7.40693529 9.12869186 9.77829365 12.30281666 12.86328125 15.58984375 C14 17 14 17 14 19 C14.66 19 15.32 19 16 19 C16 19.66 16 20.32 16 21 C16.66 21 17.32 21 18 21 C19.625 23 19.625 23 21 25 C17.50338947 25 17.24355848 24.67533732 14.875 22.3125 C8.85542849 16.03623034 2.89586903 8.24326741 0 0 Z " fill="#E31320" transform="translate(362,381)"/>
<path d="M0 0 C7.79870106 1.29978351 14.06126522 4.26646758 21 8 C21 8.66 21 9.32 21 10 C21.66 10 22.32 10 23 10 C22.46930939 13.82097239 21.50298434 16.06171403 19 19 C19.33 16.36 19.66 13.72 20 11 C17.60588163 9.70506805 15.2098212 8.41397828 12.8125 7.125 C12.13896484 6.76019531 11.46542969 6.39539063 10.77148438 6.01953125 C7.2433872 4.12640594 3.76544867 2.38919466 0 1 C0 0.67 0 0.34 0 0 Z " fill="#E11720" transform="translate(335,266)"/>
<path d="M0 0 C1.65 0 3.3 0 5 0 C4.01 0.33 3.02 0.66 2 1 C2 6.94 2 12.88 2 19 C-0.31 19 -2.62 19 -5 19 C-5.33 18.34 -5.66 17.68 -6 17 C-4.02 17 -2.04 17 0 17 C0 11.39 0 5.78 0 0 Z " fill="#212120" transform="translate(553,666)"/>
<path d="M0 0 C5.72327822 3.9956506 7.81755703 8.07318439 10.3125 14.5 C10.65861328 15.34175781 11.00472656 16.18351562 11.36132812 17.05078125 C12.9541063 20.99391629 14.40096051 24.7633149 15 29 C11.84742269 26.8982818 11.5733905 26.57851187 10.5 23.2265625 C10.2525 22.4840625 10.005 21.7415625 9.75 20.9765625 C9.5025 20.20054687 9.255 19.42453125 9 18.625 C6.84588971 11.88727299 6.84588971 11.88727299 3 6 C3 5.34 3 4.68 3 4 C2.34 4 1.68 4 1 4 C0.67 2.68 0.34 1.36 0 0 Z " fill="#E3101E" transform="translate(260,277)"/>
<path d="M0 0 C0.99 0 1.98 0 3 0 C4.03028044 2.45475514 5.04945504 4.91314351 6.0625 7.375 C6.35705078 8.07367188 6.65160156 8.77234375 6.95507812 9.4921875 C7.69591098 11.30504908 8.35396964 13.15123143 9 15 C8.67 15.66 8.34 16.32 8 17 C5.53559514 13.1273638 3.74192924 9.23039958 2 5 C1.01 6.485 1.01 6.485 0 8 C-0.66 8.99 -1.32 9.98 -2 11 C-3.13643966 7.59068103 -2.86747764 6.99664544 -1.5625 3.8125 C-1.13130859 2.73935547 -1.13130859 2.73935547 -0.69140625 1.64453125 C-0.46324219 1.10183594 -0.23507812 0.55914062 0 0 Z " fill="#161615" transform="translate(299,470)"/>
<path d="M0 0 C2.24566577 2.82559939 3.90440278 5.61847142 5.4453125 8.87890625 C5.88230469 9.79994141 6.31929688 10.72097656 6.76953125 11.66992188 C7.21683594 12.62447266 7.66414063 13.57902344 8.125 14.5625 C8.58003906 15.52091797 9.03507812 16.47933594 9.50390625 17.46679688 C12.85133929 24.55401786 12.85133929 24.55401786 14 28 C11 27 11 27 9.86499023 25.20581055 C9.51637939 24.44051025 9.16776855 23.67520996 8.80859375 22.88671875 C8.42123047 22.05076172 8.03386719 21.21480469 7.63476562 20.35351562 C7.23966797 19.47373047 6.84457031 18.59394531 6.4375 17.6875 C5.64464937 15.9621853 4.8516846 14.23692304 4.05859375 12.51171875 C3.71111084 11.74303467 3.36362793 10.97435059 3.00561523 10.18237305 C2.03233889 7.99826042 2.03233889 7.99826042 0.87133789 5.96801758 C0 4 0 4 0 0 Z " fill="#E0101B" transform="translate(292,351)"/>
<path d="M0 0 C0.66 0 1.32 0 2 0 C1.66299332 5.39210692 -1.44520958 9.17240008 -5 13 C-8.32827647 15.24149231 -9.8853708 16.12115535 -13.875 15.6875 C-14.57625 15.460625 -15.2775 15.23375 -16 15 C-13.69886712 13.84943356 -11.47119663 12.79747956 -9.0625 11.875 C-4.4076463 9.02508957 -2.39216976 4.78433952 0 0 Z " fill="#1D1D1C" transform="translate(511,507)"/>
<path d="M0 0 C0.66 0 1.32 0 2 0 C2.02578125 0.68707031 2.0515625 1.37414062 2.078125 2.08203125 C2.13484375 2.98308594 2.1915625 3.88414062 2.25 4.8125 C2.29640625 5.70582031 2.3428125 6.59914063 2.390625 7.51953125 C2.79738906 10.09954996 2.79738906 10.09954996 4.75 11.75 C7.12044583 13.06691435 9.09351906 13.67964335 11.75 14.1875 C12.54921875 14.34605469 13.3484375 14.50460937 14.171875 14.66796875 C14.77515625 14.77753906 15.3784375 14.88710938 16 15 C16 15.33 16 15.66 16 16 C6.3597561 16.56707317 6.3597561 16.56707317 2 13 C-0.20914 9.68629 -0.22481553 8.6553979 -0.125 4.8125 C-0.10695313 3.91144531 -0.08890625 3.01039063 -0.0703125 2.08203125 C-0.04710937 1.39496094 -0.02390625 0.70789063 0 0 Z " fill="#191818" transform="translate(487,649)"/>
<path d="M0 0 C0.33 0 0.66 0 1 0 C1 4.29 1 8.58 1 13 C2.11375 12.95875 3.2275 12.9175 4.375 12.875 C8 13 8 13 10 15 C8.37536158 15.05395478 6.75021459 15.09277195 5.125 15.125 C4.22007812 15.14820313 3.31515625 15.17140625 2.3828125 15.1953125 C0 15 0 15 -2 13 C-2.01171875 10.21484375 -2.01171875 10.21484375 -1.6875 6.9375 C-1.58824219 5.85339844 -1.48898437 4.76929688 -1.38671875 3.65234375 C-1 1 -1 1 0 0 Z " fill="#1C1B1A" transform="translate(563,461)"/>
<path d="M0 0 C0.99 0.495 0.99 0.495 2 1 C3.53783781 7.61938883 2.9209177 14.3410566 2 21 C0 19 0 19 -0.22705078 17.02880859 C-0.21657715 16.24328613 -0.20610352 15.45776367 -0.1953125 14.6484375 C-0.18886719 13.79765625 -0.18242188 12.946875 -0.17578125 12.0703125 C-0.15902344 11.18085938 -0.14226563 10.29140625 -0.125 9.375 C-0.11597656 8.4778125 -0.10695313 7.580625 -0.09765625 6.65625 C-0.0740497 4.43723414 -0.0411231 2.21874923 0 0 Z " fill="#171716" transform="translate(526,489)"/>
<path d="M0 0 C0.33 0 0.66 0 1 0 C1.02687279 1.81242052 1.04633715 3.62495233 1.0625 5.4375 C1.07410156 6.44683594 1.08570313 7.45617187 1.09765625 8.49609375 C1 11 1 11 0 12 C-0.15686249 13.55948542 -0.25076639 15.12542668 -0.31640625 16.69140625 C-0.35830078 17.63564453 -0.40019531 18.57988281 -0.44335938 19.55273438 C-0.48267578 20.54595703 -0.52199219 21.53917969 -0.5625 22.5625 C-0.60568359 23.55958984 -0.64886719 24.55667969 -0.69335938 25.58398438 C-0.79980298 28.0558415 -0.90181928 30.5278031 -1 33 C-1.33 33 -1.66 33 -2 33 C-2.05891984 29.37507033 -2.0939009 25.75026666 -2.125 22.125 C-2.14175781 21.11179688 -2.15851563 20.09859375 -2.17578125 19.0546875 C-2.21809062 12.45442651 -1.57671725 6.41174647 0 0 Z " fill="#E10E1B" transform="translate(514,195)"/>
<path d="M0 0 C0.66 0.66 1.32 1.32 2 2 C1.38511719 3.42892578 1.38511719 3.42892578 0.7578125 4.88671875 C0.2135091 6.15363184 -0.33075991 7.42055971 -0.875 8.6875 C-1.14441406 9.31333984 -1.41382813 9.93917969 -1.69140625 10.58398438 C-3.17446278 14.03842094 -4.62227484 17.50218321 -6 21 C-6.66 21 -7.32 21 -8 21 C-5.72564796 13.81783567 -2.96415819 6.9241798 0 0 Z " fill="#171716" transform="translate(273,535)"/>
<path d="M0 0 C0.99 0 1.98 0 3 0 C4.70060743 2.13824216 6.20205658 4.22089861 7.6875 6.5 C8.10322266 7.12003906 8.51894531 7.74007812 8.94726562 8.37890625 C9.97403506 9.91315943 10.98822225 11.45581929 12 13 C11.01 13.33 10.02 13.66 9 14 C6.69 10.37 4.38 6.74 2 3 C1.01 3.33 0.02 3.66 -1 4 C-1 1 -1 1 0 0 Z " fill="#1D1C1C" transform="translate(254,663)"/>
<path d="M0 0 C2.97932935 3.48930465 4.54739251 7.39716735 6.1875 11.625 C6.46013672 12.305625 6.73277344 12.98625 7.01367188 13.6875 C9 18.72550517 9 18.72550517 9 21 C8.34 21 7.68 21 7 21 C6.66226562 20.18015625 6.32453125 19.3603125 5.9765625 18.515625 C5.53054688 17.43796875 5.08453125 16.3603125 4.625 15.25 C4.18414062 14.18265625 3.74328125 13.1153125 3.2890625 12.015625 C2.08870257 9.10129655 2.08870257 9.10129655 0.84375 6.78125 C-0.25867408 4.45391027 -0.14114216 2.5405588 0 0 Z " fill="#151514" transform="translate(341,569)"/>
<path d="M0 0 C0.66 0 1.32 0 2 0 C9.34584876 14.18508726 9.34584876 14.18508726 8.57421875 18.234375 C8.38472656 18.81703125 8.19523437 19.3996875 8 20 C6.66065284 17.04435292 5.32955753 14.0850622 4 11.125 C3.6184375 10.28324219 3.236875 9.44148437 2.84375 8.57421875 C2.4828125 7.76855469 2.121875 6.96289062 1.75 6.1328125 C1.41484375 5.38918457 1.0796875 4.64555664 0.734375 3.87939453 C0 2 0 2 0 0 Z " fill="#171615" transform="translate(350,558)"/>
<path d="M0 0 C0.99 0.33 1.98 0.66 3 1 C2.43410156 1.55429687 1.86820313 2.10859375 1.28515625 2.6796875 C0.55167969 3.40414062 -0.18179688 4.12859375 -0.9375 4.875 C-1.66839844 5.59429688 -2.39929688 6.31359375 -3.15234375 7.0546875 C-5.05667999 8.87027192 -5.05667999 8.87027192 -6 11 C-6.66 11 -7.32 11 -8 11 C-8.66 12.32 -9.32 13.64 -10 15 C-10.99 15 -11.98 15 -13 15 C-12.34 14.01 -11.68 13.02 -11 12 C-10.34 12 -9.68 12 -9 12 C-8.690625 11.38125 -8.38125 10.7625 -8.0625 10.125 C-7.375 8.75 -6.6875 7.375 -6 6 C-5.34 6 -4.68 6 -4 6 C-4 5.34 -4 4.68 -4 4 C-3.34 4 -2.68 4 -2 4 C-1.34 2.68 -0.68 1.36 0 0 Z " fill="#161615" transform="translate(139,527)"/>
<path d="M0 0 C0.33 0 0.66 0 1 0 C1 5.94 1 11.88 1 18 C-0.32 17.34 -1.64 16.68 -3 16 C-2.34 16 -1.68 16 -1 16 C-1.01160156 14.92878906 -1.02320313 13.85757813 -1.03515625 12.75390625 C-1.04453299 11.35677257 -1.05363331 9.95963701 -1.0625 8.5625 C-1.07506836 7.50192383 -1.07506836 7.50192383 -1.08789062 6.41992188 C-1.09653588 4.61306441 -1.05220011 2.80612397 -1 1 C-0.67 0.67 -0.34 0.34 0 0 Z " fill="#1A1918" transform="translate(581,643)"/>
<path d="M0 0 C2.75979741 3.28585851 4.18309468 6.62228796 5.6875 10.625 C6.12449219 11.77226563 6.56148438 12.91953125 7.01171875 14.1015625 C8 17 8 17 8 19 C7.34 19 6.68 19 6 19 C5.57847656 17.94039062 5.15695312 16.88078125 4.72265625 15.7890625 C4.16931638 14.40102351 3.61592847 13.01300367 3.0625 11.625 C2.78470703 10.92632813 2.50691406 10.22765625 2.22070312 9.5078125 C0.71533804 5.70767754 0.71533804 5.70767754 -1 2 C-0.67 1.34 -0.34 0.68 0 0 Z " fill="#141414" transform="translate(333,549)"/>
<path d="M0 0 C4.07118515 3.72222642 7.84924501 7.84842971 10 13 C9.55126953 15.12280273 9.55126953 15.12280273 9 17 C7.49462965 14.54481265 5.99555574 12.0861548 4.5 9.625 C4.07074219 8.92632813 3.64148438 8.22765625 3.19921875 7.5078125 C0 2.2265625 0 2.2265625 0 0 Z " fill="#191917" transform="translate(496,553)"/>
<path d="M0 0 C0.66 0 1.32 0 2 0 C0.25192871 5.46737191 -1.65794081 10.75824848 -4 16 C-4.99 15.67 -5.98 15.34 -7 15 C-3.535 7.575 -3.535 7.575 0 0 Z " fill="#1B1B1A" transform="translate(286,471)"/>
<path d="M0 0 C0.66 0 1.32 0 2 0 C0.91999975 3.24000075 0.50216138 3.6336358 -2.16015625 5.48046875 C-2.78857422 5.92197266 -3.41699219 6.36347656 -4.06445312 6.81835938 C-5.05348633 7.49608398 -5.05348633 7.49608398 -6.0625 8.1875 C-6.72572266 8.65091797 -7.38894531 9.11433594 -8.07226562 9.59179688 C-9.71007505 10.73472863 -11.35442897 11.8682718 -13 13 C-13.66 12.34 -14.32 11.68 -15 11 C-13.50146484 9.93458984 -13.50146484 9.93458984 -11.97265625 8.84765625 C-10.66923542 7.91932055 -9.36585193 6.99093243 -8.0625 6.0625 C-7.40314453 5.59392578 -6.74378906 5.12535156 -6.06445312 4.64257812 C-2.89795165 2.48544482 -2.89795165 2.48544482 0 0 Z " fill="#E5161F" transform="translate(462,175)"/>
<path d="M0 0 C0.99 0 1.98 0 3 0 C4.73990668 2.0742765 6.24507485 4.07884926 7.75 6.3125 C8.17410156 6.90740234 8.59820312 7.50230469 9.03515625 8.11523438 C10.234375 9.86328125 10.234375 9.86328125 12 13 C11.67 13.99 11.34 14.98 11 16 C9.16283711 13.52365012 7.33092199 11.04346678 5.5 8.5625 C4.97535156 7.85544922 4.45070313 7.14839844 3.91015625 6.41992188 C3.41386719 5.74638672 2.91757812 5.07285156 2.40625 4.37890625 C1.94541016 3.7557251 1.48457031 3.13254395 1.00976562 2.49047852 C0 1 0 1 0 0 Z " fill="#1E1D1C" transform="translate(258,659)"/>
<path d="M0 0 C0.8353125 1.1446875 0.8353125 1.1446875 1.6875 2.3125 C4.89704103 6.04250714 8.62246095 7.89229601 13 10 C10.09292744 11.22991531 9.01818572 11.00681965 6 9.875 C2.82100867 7.88813042 0.98319886 6.17311818 -1 3 C-0.67 2.01 -0.34 1.02 0 0 Z " fill="#1E1B1A" transform="translate(487,674)"/>
<path d="M0 0 C0.99 0.33 1.98 0.66 3 1 C4.38671875 3.94140625 4.38671875 3.94140625 5.6875 7.5625 C6.12449219 8.76003906 6.56148438 9.95757812 7.01171875 11.19140625 C7.33785156 12.11824219 7.66398437 13.04507812 8 14 C7.01 14 6.02 14 5 14 C4.16235732 12.04350603 3.33000941 10.08474444 2.5 8.125 C2.0359375 7.03445313 1.571875 5.94390625 1.09375 4.8203125 C0 2 0 2 0 0 Z " fill="#1A1919" transform="translate(311,466)"/>
<path d="M0 0 C0.66 0 1.32 0 2 0 C2.83698386 2.45714547 3.66972424 4.91558857 4.5 7.375 C4.85771484 8.42300781 4.85771484 8.42300781 5.22265625 9.4921875 C7 14.7734375 7 14.7734375 7 17 C6.34 17 5.68 17 5 17 C4.16080602 14.73117913 3.32848276 12.46022973 2.5 10.1875 C2.26152344 9.54490234 2.02304687 8.90230469 1.77734375 8.24023438 C0.72931254 5.35066261 0 3.09923939 0 0 Z " fill="#E5151E" transform="translate(299,158)"/>
<path d="M0 0 C0.99 0.33 1.98 0.66 3 1 C4.1875 4.5625 4.1875 4.5625 5 8 C4.01 8.495 4.01 8.495 3 9 C2.67 7.35 2.34 5.7 2 4 C1.34 4 0.68 4 0 4 C0 4.99 0 5.98 0 7 C-0.99 7.33 -1.98 7.66 -3 8 C-1.125 1.125 -1.125 1.125 0 0 Z " fill="#181817" transform="translate(444,649)"/>
<path d="M0 0 C3.03656917 2.5988655 4.46163739 5.62071728 6.1875 9.1875 C6.71730469 10.27417969 7.24710937 11.36085938 7.79296875 12.48046875 C8.19128906 13.31191406 8.58960938 14.14335938 9 15 C5.24972838 13.74990946 4.79331273 12.52798171 2.8125 9.1875 C2.28269531 8.31480469 1.75289063 7.44210937 1.20703125 6.54296875 C0 4 0 4 0 0 Z " fill="#131313" transform="translate(489,567)"/>
<path d="M0 0 C3.9226818 3.24635735 5.96609666 7.0527242 7 12 C6.57421875 14.25 6.57421875 14.25 6 16 C4.9955866 13.7101766 3.99632388 11.4183401 3 9.125 C2.71382813 8.47402344 2.42765625 7.82304688 2.1328125 7.15234375 C0 2.2265625 0 2.2265625 0 0 Z " fill="#191918" transform="translate(343,541)"/>
<path d="M0 0 C2.60526888 2.60526888 3.34134224 5.17939234 4.625 8.625 C5.29402344 10.40777344 5.29402344 10.40777344 5.9765625 12.2265625 C6.31429688 13.14179687 6.65203125 14.05703125 7 15 C6.01 15.495 6.01 15.495 5 16 C3.96959833 13.71220962 2.95047982 11.42048864 1.9375 9.125 C1.64294922 8.47402344 1.34839844 7.82304687 1.04492188 7.15234375 C0.30338487 5.45989459 -0.35439001 3.73131425 -1 2 C-0.67 1.34 -0.34 0.68 0 0 Z " fill="#1F1F1E" transform="translate(328,503)"/>
<path d="M0 0 C0.99 0 1.98 0 3 0 C6.24900602 4.97504047 7.49940808 7.88225104 7 14 C5.10331936 11.15497903 3.76736522 8.42700115 2.375 5.3125 C1.92898438 4.31863281 1.48296875 3.32476562 1.0234375 2.30078125 C0.68570313 1.54152344 0.34796875 0.78226562 0 0 Z " fill="#191918" transform="translate(519,473)"/>
<path d="M0 0 C5.39807026 0.77115289 8.74247688 2.53855422 12.3125 6.6875 C13.1478125 7.8321875 13.1478125 7.8321875 14 9 C13.34 9.66 12.68 10.32 12 11 C11.690625 10.278125 11.38125 9.55625 11.0625 8.8125 C8.14230728 4.83041902 4.36639129 3.15115713 0 1 C0 0.67 0 0.34 0 0 Z " fill="#10100F" transform="translate(496,473)"/>
<path d="M0 0 C0.66 0.33 1.32 0.66 2 1 C0.07254909 2.70034041 -1.86541739 4.38490979 -3.8125 6.0625 C-4.63331055 6.79049805 -4.63331055 6.79049805 -5.47070312 7.53320312 C-6.91610309 8.76836309 -8.45427799 9.89295679 -10 11 C-10.99 10.67 -11.98 10.34 -13 10 C-8.71 6.7 -4.42 3.4 0 0 Z " fill="#E21822" transform="translate(435,196)"/>
<path d="M0 0 C2.9719385 1.12451727 5.33440687 2.22293791 8 4 C8 4.66 8 5.32 8 6 C10.475 6.99 10.475 6.99 13 8 C13 8.99 13 9.98 13 11 C12.48050781 10.60167969 11.96101563 10.20335937 11.42578125 9.79296875 C8.34339243 7.45126486 5.34805618 5.20303277 2 3.25 C1.34 2.8375 0.68 2.425 0 2 C0 1.34 0 0.68 0 0 Z " fill="#E51320" transform="translate(386,191)"/>
<path d="M0 0 C0.66 0 1.32 0 2 0 C2.66 1.65 3.32 3.3 4 5 C5.98 4.67 7.96 4.34 10 4 C10.33 4.99 10.66 5.98 11 7 C4.54782609 7.36521739 4.54782609 7.36521739 2.125 5.75 C0.89493337 3.83656302 0.38497994 2.23288365 0 0 Z " fill="#191817" transform="translate(266,678)"/>
<path d="M0 0 C0.99 0.495 0.99 0.495 2 1 C3.87056791 1.2275015 5.74685958 1.40962811 7.625 1.5625 C8.62789063 1.64628906 9.63078125 1.73007812 10.6640625 1.81640625 C11.43492187 1.87699219 12.20578125 1.93757812 13 2 C12.67 2.66 12.34 3.32 12 4 C8.37 4 4.74 4 1 4 C0.67 2.68 0.34 1.36 0 0 Z " fill="#1C1C1B" transform="translate(352,596)"/>
<path d="M0 0 C0.91007812 0.00902344 1.82015625 0.01804687 2.7578125 0.02734375 C3.45648438 0.03894531 4.15515625 0.05054688 4.875 0.0625 C5.205 0.7225 5.535 1.3825 5.875 2.0625 C3.52153604 3.23923198 1.9943967 3.22873866 -0.625 3.25 C-1.4190625 3.26417969 -2.213125 3.27835938 -3.03125 3.29296875 C-5.125 3.0625 -5.125 3.0625 -7.125 1.0625 C-4.60024538 -0.19987731 -2.81299534 -0.03606404 0 0 Z " fill="#21201F" transform="translate(318.125,682.9375)"/>
<path d="M0 0 C6.13053511 -0.32712342 10.62669111 -0.39366878 16 3 C15.34 3.66 14.68 4.32 14 5 C13.175 4.525625 12.35 4.05125 11.5 3.5625 C7.47204099 1.76430401 4.36826421 1.3765745 0 1 C0 0.67 0 0.34 0 0 Z " fill="#1B1A19" transform="translate(500,646)"/>
<path d="M0 0 C0.66 0 1.32 0 2 0 C1.67 1.32 1.34 2.64 1 4 C0.34 4 -0.32 4 -1 4 C-1 4.66 -1 5.32 -1 6 C-1.66 6 -2.32 6 -3 6 C-3.66 7.32 -4.32 8.64 -5 10 C-5.99 9.67 -6.98 9.34 -8 9 C-7.50628906 8.51789063 -7.01257813 8.03578125 -6.50390625 7.5390625 C-5.86324219 6.90742188 -5.22257813 6.27578125 -4.5625 5.625 C-3.92441406 4.99851562 -3.28632813 4.37203125 -2.62890625 3.7265625 C-0.92117824 2.08276939 -0.92117824 2.08276939 0 0 Z " fill="#100F0E" transform="translate(207,474)"/>
<path d="M0 0 C2.3125 2 2.3125 2 2.625 5.6875 C2.4703125 7.3271875 2.4703125 7.3271875 2.3125 9 C1.6525 9 0.9925 9 0.3125 9 C0.065 7.88625 -0.1825 6.7725 -0.4375 5.625 C-1.29755339 1.95384802 -1.29755339 1.95384802 -3.8125 0.5625 C-4.43125 0.376875 -5.05 0.19125 -5.6875 0 C-2.6875 -1 -2.6875 -1 0 0 Z " fill="#E40A18" transform="translate(525.6875,154)"/>
<path d="M0 0 C0.99 0.33 1.98 0.66 3 1 C3.66666667 3 4.33333333 5 5 7 C5.99 7.33 6.98 7.66 8 8 C8 8.66 8 9.32 8 10 C3.79236776 8.4972742 2.1972242 5.76667005 0 2 C0 1.34 0 0.68 0 0 Z " fill="#21201F" transform="translate(305,669)"/>
<path d="M0 0 C6.44807122 0.60830861 6.44807122 0.60830861 8.9375 2.375 C10 4 10 4 10 7 C9.34 7 8.68 7 8 7 C7.67 5.68 7.34 4.36 7 3 C4.69 2.34 2.38 1.68 0 1 C0 0.67 0 0.34 0 0 Z " fill="#141312" transform="translate(508,665)"/>
<path d="M0 0 C0 3.54404336 -0.60989485 4.10267905 -2.875 6.6875 C-3.40867187 7.31011719 -3.94234375 7.93273437 -4.4921875 8.57421875 C-6 10 -6 10 -8 10 C-6.34908222 5.70761377 -3.26245434 3.1206085 0 0 Z " fill="#212120" transform="translate(96,574)"/>
<path d="M0 0 C2.96052484 3.36423277 3.92289822 6.69159287 5 11 C4.01 11.495 4.01 11.495 3 12 C2.30062798 10.5682384 1.61587282 9.12932968 0.9375 7.6875 C0.55464844 6.88699219 0.17179687 6.08648438 -0.22265625 5.26171875 C-1 3 -1 3 0 0 Z " fill="#161615" transform="translate(335,519)"/>
<path d="M0 0 C1.32 0 2.64 0 4 0 C4 0.66 4 1.32 4 2 C4.66 2 5.32 2 6 2 C5.46930939 5.82097239 4.50298434 8.06171403 2 11 C2.226875 9.741875 2.45375 8.48375 2.6875 7.1875 C3.20193197 3.85861291 3.20193197 3.85861291 1.5625 1 C1.046875 0.67 0.53125 0.34 0 0 Z " fill="#E60D19" transform="translate(352,274)"/>
<path d="M0 0 C0.66 0 1.32 0 2 0 C1.54917531 1.46067199 1.08906463 2.91848032 0.625 4.375 C0.36976563 5.18710937 0.11453125 5.99921875 -0.1484375 6.8359375 C-1 9 -1 9 -3 11 C-2.53199289 6.94393835 -2.12046792 3.53411321 0 0 Z " fill="#1B1B1A" transform="translate(242,575)"/>
<path d="M0 0 C0.66 0.33 1.32 0.66 2 1 C1.21718695 2.33855056 0.42348123 3.67073644 -0.375 5 C-0.81585938 5.7425 -1.25671875 6.485 -1.7109375 7.25 C-2.34902344 8.11625 -2.34902344 8.11625 -3 9 C-3.66 9 -4.32 9 -5 9 C-4.42647107 5.12867972 -2.51295648 2.91827204 0 0 Z " fill="#1E1D1D" transform="translate(388,651)"/>
<path d="M0 0 C3 1 3 1 4.16796875 2.84765625 C4.50441406 3.57855469 4.84085937 4.30945313 5.1875 5.0625 C5.53167969 5.79597656 5.87585938 6.52945313 6.23046875 7.28515625 C6.48441406 7.85105469 6.73835938 8.41695312 7 9 C6.01 9 5.02 9 4 9 C0 2.25 0 2.25 0 0 Z " fill="#1A1A18" transform="translate(488,539)"/>
<path d="M0 0 C2.31 0 4.62 0 7 0 C7.33 1.32 7.66 2.64 8 4 C7.67 3.34 7.34 2.68 7 2 C5.35 2 3.7 2 2 2 C2 2.66 2 3.32 2 4 C1.34 4 0.68 4 0 4 C0 2.68 0 1.36 0 0 Z " fill="#434241" transform="translate(329,641)"/>
<path d="M0 0 C2 1 2 1 2.8515625 3.28515625 C3.10679687 4.20167969 3.36203125 5.11820312 3.625 6.0625 C3.88539063 6.98160156 4.14578125 7.90070313 4.4140625 8.84765625 C4.60742188 9.55792969 4.80078125 10.26820313 5 11 C4.34 11 3.68 11 3 11 C2.49384702 9.73160474 1.99530901 8.46016898 1.5 7.1875 C1.2215625 6.47980469 0.943125 5.77210938 0.65625 5.04296875 C0 3 0 3 0 0 Z " fill="#131211" transform="translate(308,488)"/>
<path d="M0 0 C1.39864092 3.17872935 0.89282517 4.30111022 -0.3125 7.6875 C-2 11 -2 11 -4 12 C-3.33501617 7.61110675 -1.81242323 4.0188515 0 0 Z " fill="#E2101D" transform="translate(523,169)"/>
<path d="M0 0 C0.99 0 1.98 0 3 0 C3.99 1.98 4.98 3.96 6 6 C5.01 6.495 5.01 6.495 4 7 C3.566875 6.34 3.13375 5.68 2.6875 5 C1.8521875 4.01 1.8521875 4.01 1 3 C0.01 3 -0.98 3 -2 3 C-1.34 2.01 -0.68 1.02 0 0 Z " fill="#121212" transform="translate(254,663)"/>
<path d="M0 0 C2.31 0 4.62 0 7 0 C7 1.32 7 2.64 7 4 C6.67 3.34 6.34 2.68 6 2 C3.69 2.33 1.38 2.66 -1 3 C-0.67 2.01 -0.34 1.02 0 0 Z " fill="#373635" transform="translate(299,641)"/>
<path d="M0 0 C3 1 3 1 4.75 3.3125 C6 6 6 6 5 10 C3.35 6.7 1.7 3.4 0 0 Z " fill="#151514" transform="translate(510,578)"/>
<path d="M0 0 C2.64465038 3.1254959 3.84414715 6.08788267 5 10 C2 9 2 9 1.05078125 7.15234375 C0.80714844 6.42144531 0.56351562 5.69054687 0.3125 4.9375 C0.06113281 4.20402344 -0.19023437 3.47054688 -0.44921875 2.71484375 C-0.63097656 2.14894531 -0.81273437 1.58304687 -1 1 C-0.67 0.67 -0.34 0.34 0 0 Z " fill="#E6121B" transform="translate(374,363)"/>
<path d="M0 0 C0.99 0.495 0.99 0.495 2 1 C2.33 1.99 2.66 2.98 3 4 C4.49985609 5.66710346 4.49985609 5.66710346 6 7 C5.01 7.495 5.01 7.495 4 8 C2 6.8125 2 6.8125 0 5 C-0.25 2.3125 -0.25 2.3125 0 0 Z " fill="#191716" transform="translate(492,652)"/>
<path d="M0 0 C3 1 3 1 4.1875 3.375 C5 6 5 6 5 9 C4.34 9 3.68 9 3 9 C2.01 6.03 1.02 3.06 0 0 Z " fill="#1C1B1A" transform="translate(364,591)"/>
<path d="M0 0 C0.33 0.66 0.66 1.32 1 2 C0.67 2.66 0.34 3.32 0 4 C-0.66 4 -1.32 4 -2 4 C-2.66 5.32 -3.32 6.64 -4 8 C-4.99 8 -5.98 8 -7 8 C-6.34 7.01 -5.68 6.02 -5 5 C-4.34 5 -3.68 5 -3 5 C-2.690625 4.360625 -2.38125 3.72125 -2.0625 3.0625 C-1 1 -1 1 0 0 Z " fill="#1D1D1C" transform="translate(133,534)"/>
<path d="M0 0 C3.44216672 2.6598561 3.99504674 5.90288286 5 10 C2 9 2 9 0.8125 6.6875 C0 4 0 4 0 0 Z " fill="#E41020" transform="translate(353,357)"/>
<path d="M0 0 C0.66 0 1.32 0 2 0 C1.50168276 3.68754757 0.89932357 5.60490662 -2 8 C-2.33 7.34 -2.66 6.68 -3 6 C-2.06553465 3.96855359 -1.06775224 1.96466413 0 0 Z " fill="#131312" transform="translate(511,507)"/>
<path d="M0 0 C0.66 0.66 1.32 1.32 2 2 C-0.97 4.475 -0.97 4.475 -4 7 C-4 4 -4 4 -2 1.8125 C-1.34 1.214375 -0.68 0.61625 0 0 Z " fill="#161615" transform="translate(250,667)"/>
<path d="M0 0 C1.89213369 2.38573379 3.02391783 4.07175348 4 7 C3.34 7.66 2.68 8.32 2 9 C0.4375 6.1875 0.4375 6.1875 -1 3 C-0.67 2.01 -0.34 1.02 0 0 Z " fill="#1C1B1A" transform="translate(452,651)"/>
<path d="M0 0 C2.31 0 4.62 0 7 0 C6.67 1.32 6.34 2.64 6 4 C5.67 3.34 5.34 2.68 5 2 C3.35 2 1.7 2 0 2 C0 1.34 0 0.68 0 0 Z " fill="#434241" transform="translate(270,641)"/>
<path d="M0 0 C0.66 0 1.32 0 2 0 C0.50902342 3.7952131 -1.75700849 5.61042731 -5 8 C-3.63055898 5.05043472 -2.12169591 2.47531189 0 0 Z " fill="#181817" transform="translate(120,568)"/>
</svg>
