<?xml version="1.0" encoding="UTF-8"?>
<svg version="1.1" xmlns="http://www.w3.org/2000/svg" width="512" height="512">
<path d="M0 0 C4.31842641 1.71424021 7.19096946 3.93814741 10 7.625 C12.24678696 15.207906 11.98949697 20.74325198 8.28222656 27.77294922 C5.95174324 31.90867082 3.48294536 35.95453598 1 40 C-0.26153428 42.08656428 -1.52188663 44.17384348 -2.78125 46.26171875 C-4.87929642 49.73160337 -6.98074952 53.19914402 -9.09619141 56.65844727 C-15.75502856 67.54875996 -22.26984145 78.5220138 -28.75561523 89.51611328 C-29.14302887 90.17142029 -29.5304425 90.82672729 -29.92959595 91.50189209 C-30.97822801 93.27570978 -32.02495179 95.05065521 -33.0715332 96.82568359 C-34.96201712 99.93747899 -36.98031229 102.97046843 -39 106 C25.68 106 90.36 106 157 106 C151.39 96.76 145.78 87.52 140 78 C136.71833217 72.50599854 133.44220907 67.00982824 130.1875 61.5 C128.59976328 58.8172313 127.01093044 56.13511276 125.421875 53.453125 C124.85248451 52.49173615 124.85248451 52.49173615 124.27159119 51.51092529 C120.37254178 44.93211848 116.4348724 38.37656492 112.4753418 31.83398438 C112.03875244 31.11017578 111.60216309 30.38636719 111.15234375 29.640625 C110.78101318 29.02735352 110.40968262 28.41408203 110.02709961 27.78222656 C106.73646817 22.07231225 106.26322833 17.58431394 107 11 C108.30559574 6.73140555 110.59943268 4.31244251 114.125 1.5625 C118.53516448 -0.60952962 123.22492328 -1.10299476 128 0 C136.16667597 3.22446478 139.63593376 10.02031818 143.8125 17.3125 C144.54377708 18.55639605 145.27689488 19.79921152 146.01171875 21.04101562 C147.56269629 23.66839082 149.1030372 26.30158258 150.63525391 28.93994141 C152.97646233 32.96773968 155.3488131 36.9764833 157.73046875 40.98046875 C158.31955017 41.97095215 158.31955017 41.97095215 158.92053223 42.98144531 C159.71563295 44.31814583 160.51081937 45.65479538 161.30609131 46.99139404 C162.50179209 49.00301498 163.69490508 51.0161481 164.88720703 53.02978516 C170.26808414 62.11452597 175.70302493 71.16493297 181.1875 80.1875 C181.8578125 81.29029297 182.528125 82.39308594 183.21875 83.52929688 C184.46560942 85.57699486 185.72867395 87.61496799 187.01228333 89.63983154 C189 93 189 93 190.48124695 96.40863037 C192.37745205 100.39898552 193.85740286 102.86767171 197 106 C203.10275742 107.84353238 208.9689104 107.56373065 215.2890625 107.34765625 C217.07926395 107.33567425 218.86951801 107.33003435 220.65975952 107.33042908 C225.3578022 107.31717096 230.05136962 107.22982501 234.74810791 107.12304688 C242.26961455 106.96474976 249.7926292 106.92032345 257.31550217 106.87450981 C259.93649068 106.84806063 262.55534758 106.79052307 265.1756897 106.72779846 C266.78720267 106.70473558 268.39872388 106.68223941 270.01025391 106.66040039 C270.73352371 106.63494644 271.45679352 106.60949249 272.20198059 106.58326721 C277.29471094 106.54666722 280.07217672 107.82389513 284 111 C288.08142118 115.5226559 289.32364536 118.79146353 289.2109375 124.9453125 C288.72144252 129.71335617 286.46819043 132.79112677 282.9375 135.8125 C277.21953967 140.07055556 271.92430653 139.06788536 265 139 C264.88734236 139.95420743 264.77468472 140.90841486 264.6586132 141.89153767 C263.43427418 152.0734877 261.91894966 162.18714325 260.26611328 172.30737305 C259.99622584 173.97331172 259.72656935 175.63928782 259.4571228 177.30529785 C258.73271953 181.77871154 258.00445715 186.2514878 257.2749238 190.72406745 C256.81772067 193.52761172 256.36121213 196.33126829 255.90490341 199.13495827 C254.47243943 207.93518055 253.03759474 216.7350096 251.59923947 225.53427094 C249.94695089 235.64239986 248.30262675 245.75178195 246.66515553 255.86232156 C245.39255679 263.71692207 244.11289001 271.57035094 242.82793605 279.4229396 C242.06331823 284.09661003 241.30159734 288.77070642 240.54727554 293.44605064 C239.8379498 297.84126333 239.11978449 302.23494441 238.39508438 306.6276474 C238.13233829 308.22940001 237.87264431 309.8316571 237.61641693 311.43446541 C234.46986352 331.08914769 229.59941846 350.09723067 212.73046875 362.484375 C205.61320127 367.41453964 198.45118065 370.88405611 190 373 C189.32857656 373.17549975 188.65715313 373.35099951 187.96538353 373.53181744 C183.62113714 374.2176985 179.32439477 374.14801818 174.93276978 374.14717102 C173.91002594 374.15084771 172.88728211 374.1545244 171.83354604 374.1583125 C168.40155817 374.16933795 164.96960058 374.17319131 161.53759766 374.17700195 C159.07846989 374.1832676 156.61934307 374.18991449 154.16021729 374.19691467 C146.77617984 374.21613361 139.39215043 374.22674304 132.00809532 374.23564246 C128.52533795 374.24003125 125.04258208 374.24539663 121.5598259 374.25063133 C109.97200906 374.26764305 98.38419314 374.28213426 86.79636574 374.28938007 C83.79116439 374.29128978 80.78596304 374.29321014 77.78076172 374.29516602 C77.03388896 374.29564976 76.2870162 374.2961335 75.51751094 374.2966319 C63.43551026 374.30492113 51.35360894 374.33023952 39.27165158 374.36274669 C26.84919257 374.3958956 14.4267839 374.41383601 2.00428045 374.41702431 C-4.96304336 374.41918251 -11.9302224 374.42782896 -18.8975029 374.45348549 C-25.45895155 374.47759251 -32.02018779 374.48096925 -38.58168793 374.47072411 C-40.98133586 374.47023041 -43.38099689 374.47650142 -45.78060532 374.49028015 C-67.09872022 374.60577504 -84.69234298 372.46504367 -100.97265625 357.15625 C-109.359436 348.23620679 -114.40941782 338.03468555 -116.73730469 326.06835938 C-116.90356228 325.22341667 -117.06981987 324.37847397 -117.24111557 323.50792694 C-120.1684489 308.25596041 -122.55887826 292.90014971 -125.05959034 277.5739727 C-125.8314741 272.84701335 -126.60690918 268.1206363 -127.3817749 263.39416504 C-128.67857647 255.48047099 -129.9724789 247.56630708 -131.26464844 239.65185547 C-132.7579975 230.50544686 -134.25622086 221.35984642 -135.75693727 212.21464396 C-137.20576286 203.38485989 -138.65100215 194.55449237 -140.0946579 185.72386169 C-140.70748575 181.97574748 -141.32160536 178.22784832 -141.93677521 174.4801178 C-142.65872256 170.08095117 -143.37754442 165.6812851 -144.09393311 161.28120995 C-144.35728396 159.66690894 -144.62172295 158.05278503 -144.88732147 156.43885231 C-145.24913986 154.23912279 -145.6070354 152.03879005 -145.96392822 149.83825684 C-146.26585775 147.99123295 -146.26585775 147.99123295 -146.57388687 146.10689545 C-147 143 -147 143 -147 139 C-147.86882812 139.04640625 -148.73765625 139.0928125 -149.6328125 139.140625 C-159.07857309 139.43646538 -159.07857309 139.43646538 -163.5625 137.3125 C-168.23988611 132.87497984 -170.81901158 129.76007348 -171.25 123.1875 C-171.15908151 117.67177833 -169.14059765 114.28317235 -165.5 110.1875 C-161.32005092 106.53004455 -157.73045015 106.96089429 -152.49365234 107.23901367 C-150.91131678 107.31174049 -149.32890407 107.38280285 -147.74642944 107.45243835 C-146.48671389 107.50810754 -146.48671389 107.50810754 -145.20154953 107.56490135 C-139.78690428 107.7782638 -134.36884339 107.87450957 -128.95114708 107.977458 C-124.20263437 108.07397941 -119.46698955 108.22069108 -114.72460938 108.48461914 C-95.29201351 110.31595565 -95.29201351 110.31595565 -77.25938416 104.80878448 C-70.40257274 98.62189605 -66.77017654 89.81332639 -63.40997314 81.40029907 C-61.60621231 77.05033942 -59.30943057 73.20551111 -56.78125 69.25 C-56.05326753 68.0302479 -55.33029528 66.80748917 -54.61279297 65.58154297 C-45.78148249 50.60707116 -36.84857577 35.69642589 -27.7578125 20.87792969 C-26.21832065 18.35743941 -24.69928065 15.82621509 -23.1875 13.2890625 C-22.41761487 12.02546346 -21.64689125 10.76237457 -20.875 9.5 C-20.27429688 8.4996875 -19.67359375 7.499375 -19.0546875 6.46875 C-14.01539475 0.41393438 -7.63453632 -1.37183075 0 0 Z M-37 186 C-41.6201734 191.80483325 -42.1514483 196.40210498 -42.16113281 203.59887695 C-42.16609772 204.4772522 -42.17106262 205.35562744 -42.17617798 206.26062012 C-42.19079666 209.16984844 -42.19760127 212.07902222 -42.203125 214.98828125 C-42.20887688 217.00986228 -42.21463461 219.03144329 -42.22039795 221.05302429 C-42.23090723 225.2940598 -42.23675032 229.53507635 -42.24023438 233.77612305 C-42.24571767 239.20681463 -42.26974256 244.63725531 -42.29820633 250.06786823 C-42.31684319 254.24491606 -42.32203888 258.42190359 -42.32357025 262.59898949 C-42.32659514 264.60083576 -42.33461815 266.60268101 -42.34775543 268.60448647 C-42.36483701 271.40749746 -42.36293043 274.20989732 -42.35644531 277.01293945 C-42.3656601 277.83757187 -42.37487488 278.66220428 -42.3843689 279.51182556 C-42.33815766 285.89774998 -40.82355166 289.94850438 -36.5 294.8125 C-32.43023785 298.37354188 -28.69350349 298.34897749 -23.50390625 298.2734375 C-19.71823448 297.86002561 -17.76934288 296.57153267 -15 294 C-11.12475579 288.42027967 -10.41809561 284.37980466 -10.48242188 277.67163086 C-10.4754126 276.7634108 -10.46840332 275.85519073 -10.46118164 274.91944885 C-10.44365751 271.93426429 -10.45520366 268.950037 -10.46875 265.96484375 C-10.46605372 263.88171711 -10.46217016 261.7985917 -10.45715332 259.71546936 C-10.45126603 255.35698422 -10.45979749 250.99882771 -10.47851562 246.64038086 C-10.50131868 241.05943402 -10.48816833 235.4792561 -10.46422577 229.89833736 C-10.44975924 225.59943364 -10.45437751 221.3007117 -10.46473694 217.00180244 C-10.46740111 214.94414745 -10.46414537 212.88647584 -10.45481873 210.82884026 C-10.44463766 207.95177463 -10.46017563 205.07594815 -10.48242188 202.19897461 C-10.47432495 201.35257416 -10.46622803 200.50617371 -10.45788574 199.63412476 C-10.55187994 193.05860142 -12.63783384 189.49714709 -17.1875 184.6875 C-23.97471128 180.61517323 -30.74214754 181.24289949 -37 186 Z M47.25 187.1875 C42.76496982 192.79378772 42.70258607 199.66161455 42.7253418 206.56811523 C42.72023087 207.38388031 42.71511993 208.19964539 42.70985413 209.04013062 C42.69605467 211.71302814 42.69690745 214.38566504 42.69921875 217.05859375 C42.69532679 218.93132115 42.6909911 220.80404767 42.68623352 222.67677307 C42.67879225 226.59289416 42.67904757 230.50892506 42.68432617 234.42504883 C42.69012089 239.4259909 42.67317951 244.42656262 42.6499815 249.4274435 C42.63520096 253.29236483 42.63437828 257.15719782 42.63749123 261.02214241 C42.63698028 262.86520179 42.63178545 264.7082664 42.62167931 266.55129814 C42.60924667 269.13526909 42.61614674 271.71852938 42.62768555 274.30249023 C42.62004181 275.05237717 42.61239807 275.8022641 42.60452271 276.57487488 C42.66187222 282.42905415 43.42641522 289.10367138 47.45191479 293.6339941 C52.21215514 297.67135664 55.39269217 298.35603857 61.4609375 298.27734375 C65.22460402 297.86623556 67.21790187 296.5171364 70 294 C74.90110614 287.77427058 75.14985094 282.46990186 75.16113281 274.77246094 C75.16609772 273.95713394 75.17106262 273.14180695 75.17617798 272.30177307 C75.19074573 269.61263169 75.19759295 266.92354931 75.203125 264.234375 C75.20888131 262.35736084 75.21463898 260.48034668 75.22039795 258.60333252 C75.23089292 254.66930875 75.23674528 250.73530532 75.24023438 246.80126953 C75.24571293 241.77672505 75.26973371 236.75245239 75.29820633 231.72799301 C75.3168923 227.85021191 75.3220415 223.97249547 75.32357025 220.09467316 C75.32658435 218.24323289 75.3345706 216.39179342 75.34775543 214.54039764 C75.36493944 211.94176453 75.36290574 209.3437851 75.35644531 206.74511719 C75.3656601 205.99051712 75.37487488 205.23591705 75.3843689 204.45845032 C75.3296397 197.37943137 74.00573775 190.64205754 68.875 185.5 C61.31859294 179.76479887 54.24735452 181.62142254 47.25 187.1875 Z M133.55859375 186.46875 C129.07852513 191.67635113 128.84380177 195.08510964 128.82299805 201.74487305 C128.81642685 202.65075668 128.80985565 203.55664032 128.80308533 204.48997498 C128.78332546 207.49722369 128.77168254 210.50442236 128.76171875 213.51171875 C128.75764322 214.53820841 128.7535677 215.56469807 128.74936867 216.62229347 C128.72849451 222.05735702 128.71419972 227.49239524 128.70483398 232.92749023 C128.69377859 238.53866294 128.65939237 244.14943808 128.61966228 249.76047039 C128.59349769 254.07653026 128.58514217 258.3924955 128.58155251 262.7086277 C128.57668462 264.77664684 128.5650649 266.84466171 128.54651451 268.91260338 C128.52213124 271.81143885 128.52308697 274.70924737 128.5300293 277.6081543 C128.51721924 278.4588147 128.50440918 279.3094751 128.49121094 280.18591309 C128.54133175 285.94348216 129.69714261 289.25719038 133 294 C136.57664295 297.32116845 139.29480887 298.26747833 144.0625 298.4375 C149.00923759 298.20793583 151.88998369 297.20018794 155.37109375 293.5703125 C159.98942867 288.3109056 160.15517015 284.1520294 160.17700195 277.43286133 C160.18357315 276.55769867 160.19014435 275.68253601 160.19691467 274.78085327 C160.21664281 271.88124505 160.22831026 268.98168866 160.23828125 266.08203125 C160.24235678 265.0908045 160.2464323 264.09957775 160.25063133 263.07831383 C160.2714917 257.83012475 160.28579262 252.5819618 160.29516602 247.33374023 C160.30622007 241.92110573 160.34060865 236.5088835 160.38033772 231.09639454 C160.40652475 226.92784375 160.4148598 222.7593908 160.41844749 218.590765 C160.42330937 216.59613961 160.43491195 214.60151848 160.45348549 212.60697365 C160.47791734 209.80902403 160.47690432 207.01213568 160.4699707 204.21411133 C160.48278076 203.39666946 160.49559082 202.5792276 160.50878906 201.73701477 C160.45783653 196.06964427 159.18668576 191.73087596 156 187 C149.42298714 181.03480229 140.12310279 179.77971098 133.55859375 186.46875 Z " fill="#000000" transform="translate(197,69)"/>
</svg>
