<?xml version="1.0" encoding="UTF-8"?>
<svg version="1.1" xmlns="http://www.w3.org/2000/svg" width="512" height="512">
<path d="M0 0 C7.57943705 6.87692713 14.32534988 14.03157639 20.5546875 22.15625 C21.17988281 22.89230469 21.80507813 23.62835938 22.44921875 24.38671875 C56.12968687 64.24079609 70.36955544 119.32797713 66.0546875 170.7265625 C62.1090856 211.21901138 47.67641971 250.82543068 21.17578125 282.11328125 C19.40104659 284.34987457 18.00338154 286.69910914 16.5546875 289.15625 C17.26829091 289.86800982 17.98189432 290.57976965 18.71712208 291.31309795 C36.07369642 308.62528975 53.4245149 325.94323373 70.76929951 343.26723766 C79.15720788 351.64482977 87.54698227 360.0205371 95.94116211 368.3918457 C103.25680043 375.68756091 110.56892633 382.98677494 117.87684125 390.29022676 C121.74708148 394.15785779 125.61906774 398.02370394 129.49526405 401.88536644 C133.14302875 405.51956433 136.78608134 409.15841941 140.42556381 412.80091095 C141.76258301 414.13737959 143.10131922 415.47213304 144.44188881 416.80504036 C146.27156558 418.62477018 148.094971 420.45056391 149.91694641 422.27799988 C150.4490497 422.80427748 150.98115299 423.33055509 151.52938062 423.8727805 C155.56445389 427.94063467 158.98160981 431.65966339 158.9921875 437.59375 C158.81900088 442.11919163 157.64316343 444.74267134 154.5546875 448.15625 C150.18122135 451.0718941 146.76802756 451.72497801 141.5546875 451.15625 C137.23577057 449.00166318 134.03553882 445.91479426 130.67643738 442.51850891 C130.10455148 441.94833186 129.53266557 441.37815481 128.9434498 440.79069966 C127.0332828 438.88382019 125.13034015 436.96989317 123.22729492 435.0559082 C121.85754636 433.68559537 120.48735699 432.31572303 119.11676025 430.94625854 C115.39987331 427.22994548 111.68918569 423.50749762 107.97957397 419.78392434 C104.10074371 415.8925928 100.21625012 412.00692311 96.33235168 408.12065125 C88.97968961 400.76177265 81.63214074 393.39781058 74.28641158 386.03201216 C65.92280816 377.64605515 57.55352597 369.26577547 49.18376005 360.88596976 C31.96773938 343.64904318 14.75886864 326.40499306 -2.4453125 309.15625 C-5.86813616 310.46364153 -8.19563712 311.59318672 -10.8203125 314.15625 C-21.28309589 323.60018557 -34.03989378 330.60500294 -46.4453125 337.15625 C-47.56550781 337.75050781 -48.68570312 338.34476562 -49.83984375 338.95703125 C-68.09987 348.03487287 -88.29142748 354.18008118 -108.4453125 357.15625 C-109.20118652 357.27049316 -109.95706055 357.38473633 -110.73583984 357.50244141 C-165.08204675 365.34586447 -219.91158003 350.71236457 -264.0078125 318.46875 C-269.40573891 314.2861026 -274.50321522 309.86734273 -279.4453125 305.15625 C-280.0115332 304.61726074 -280.57775391 304.07827148 -281.16113281 303.52294922 C-289.55567909 295.47983339 -297.2787307 287.21730018 -304.18652344 277.859375 C-305.41600646 276.19590069 -306.66747462 274.55097448 -307.921875 272.90625 C-339.17797641 231.27483354 -353.34118434 178.11656901 -346.2578125 126.46875 C-340.75112541 90.05204384 -325.99935074 56.19339821 -303.4453125 27.15625 C-302.70667969 26.20363281 -301.96804688 25.25101562 -301.20703125 24.26953125 C-292.87879157 13.84020003 -283.84370191 3.56538231 -273.4453125 -4.84375 C-272.39414703 -5.73001324 -271.34340665 -6.61678078 -270.29296875 -7.50390625 C-255.9965458 -19.4198778 -240.34373424 -29.07538704 -223.4453125 -36.84375 C-222.29933594 -37.37484375 -221.15335937 -37.9059375 -219.97265625 -38.453125 C-145.82031959 -71.48539437 -59.97192942 -52.83305062 0 0 Z M-248.4453125 10.15625 C-249.34507812 10.82914063 -250.24484375 11.50203125 -251.171875 12.1953125 C-288.04954489 41.05125359 -311.37251027 83.72456221 -317.97802734 129.87841797 C-318.50312552 134.19152838 -318.62390747 138.45922688 -318.6484375 142.80078125 C-318.65413757 143.61004562 -318.65983765 144.41931 -318.66571045 145.25309753 C-318.67510524 146.96160602 -318.68167229 148.67013218 -318.68554688 150.37866211 C-318.69514382 152.92401203 -318.72617414 155.46851449 -318.7578125 158.01367188 C-318.85670799 173.19573988 -317.12890546 188.07218013 -312.7578125 202.65625 C-312.50362549 203.51951904 -312.24943848 204.38278809 -311.98754883 205.2722168 C-304.68767093 229.2300621 -292.65047637 251.57110498 -275.5234375 269.92578125 C-273.61504359 271.97407622 -271.80906524 274.07660597 -270.0078125 276.21875 C-241.67025332 308.48492534 -194.90977674 329.06565747 -152.4453125 332.15625 C-107.28177979 333.94522295 -63.72096832 323.68559636 -28.4453125 294.15625 C-27.85878906 293.66979004 -27.27226562 293.18333008 -26.66796875 292.68212891 C-15.81670254 283.65183364 -6.15565901 274.31902417 2.5546875 263.15625 C2.9868457 262.60582031 3.41900391 262.05539062 3.86425781 261.48828125 C20.13337961 240.60937945 31.01254226 217.04107564 36.5546875 191.15625 C36.80025391 190.02993164 36.80025391 190.02993164 37.05078125 188.88085938 C46.44940079 143.71311338 35.62958093 93.21757628 10.5546875 54.71875 C9.24272511 52.84940078 7.90881553 50.99528483 6.5546875 49.15625 C5.78511719 48.10308594 5.01554687 47.04992187 4.22265625 45.96484375 C-1.52448971 38.23718509 -7.8142115 31.13103611 -14.4453125 24.15625 C-15.0640625 23.47304687 -15.6828125 22.78984375 -16.3203125 22.0859375 C-46.0934844 -9.68097359 -91.62056562 -25.62837536 -134.25 -27.02734375 C-175.87265424 -27.87556784 -215.31315561 -14.86025303 -248.4453125 10.15625 Z " fill="#000000" transform="translate(350.4453125,57.84375)"/>
<path d="M0 0 C10.25254721 5.41228887 19.06264404 12.37175361 27.421875 20.390625 C28.25460937 21.16019531 29.08734375 21.92976563 29.9453125 22.72265625 C36.47309185 28.93911074 41.70047058 35.74634385 46.421875 43.390625 C46.76992188 43.95346191 47.11796875 44.51629883 47.4765625 45.09619141 C58.74387584 63.74973694 66.03991938 87.42761792 64.421875 109.390625 C63.16848912 113.63821049 62.04044723 115.8162365 58.796875 118.828125 C54.47661762 120.82824416 51.1031108 121.21277752 46.421875 120.390625 C41.37861241 117.96238746 39.49472365 115.5059742 37.421875 110.390625 C36.88914567 107.25777231 36.69156492 104.12198311 36.484375 100.953125 C34.15598122 73.79347447 21.67227765 51.46128982 1.203125 33.55078125 C-15.35132467 20.693182 -35.66074419 14.38475591 -56.45703125 13.796875 C-61.39598852 13.15400697 -64.62637305 11.44256137 -67.953125 7.765625 C-70.03306973 3.44573979 -70.40542915 0.10119353 -69.578125 -4.609375 C-67.82491712 -8.2506529 -66.26176005 -10.10915423 -63.015625 -12.484375 C-43.74250678 -18.79194096 -17.16991526 -8.67939573 0 0 Z " fill="#000000" transform="translate(267.578125,103.609375)"/>
</svg>
